<svg width="16" height="16" viewBox="0 0 16 16" fill="none" xmlns="http://www.w3.org/2000/svg">
<g clip-path="url(#clip0_850_1094)">
<path d="M9.81604 15.5192C11.2883 15.165 12.5981 14.392 13.6083 13.3303H11.0805L9.81604 15.5192Z" fill="#272425"/>
<path d="M9.88654 15.7781C11.3827 15.4036 12.7248 14.627 13.797 13.5212C13.9582 13.3542 13.8436 13.0643 13.6071 13.0643H11.0794C10.9851 13.0643 10.8955 13.1156 10.8477 13.1967L9.58326 15.3857C9.41013 15.6851 9.87341 15.9547 10.0465 15.6564C10.468 14.9264 10.8895 14.1976 11.311 13.4675C11.2334 13.5117 11.157 13.5558 11.0794 13.5999H13.6071C13.5439 13.4472 13.4806 13.2957 13.4173 13.1431C12.4048 14.1868 11.1546 14.9097 9.74326 15.2628C9.40774 15.3463 9.54983 15.8628 9.88535 15.7793L9.88654 15.7781Z" fill="#272425"/>
<path d="M1.82692 8.00182L0.569603 5.82721C0.367812 6.51669 0.259155 7.24673 0.259155 8.00182C0.259155 8.7569 0.367812 9.48694 0.569603 10.1764L1.82692 8.00182Z" fill="#272425"/>
<path d="M2.05851 7.8658C1.6394 7.14054 1.2203 6.41646 0.801194 5.6912C0.684179 5.4896 0.373731 5.53374 0.311642 5.75561C-0.103881 7.23119 -0.103881 8.77239 0.311642 10.248C0.373731 10.4698 0.684179 10.514 0.801194 10.3124C1.2203 9.58712 1.6394 8.86304 2.05851 8.13778C1.9809 8.18191 1.90448 8.22605 1.82687 8.27019H1.87821C2.02388 8.27019 2.14567 8.14851 2.14567 8.00298C2.14567 7.85745 2.02388 7.73578 1.87821 7.73578H1.82687C1.48179 7.73578 1.48179 8.27138 1.82687 8.27138H1.87821L1.61075 8.00418L1.87821 7.73697H1.82687C1.73254 7.73697 1.64299 7.78827 1.59522 7.86938C1.17612 8.59465 0.757015 9.31872 0.33791 10.044C0.501493 10.0655 0.663881 10.0869 0.827463 10.1084C0.435821 8.72109 0.435821 7.28845 0.827463 5.90114C0.663881 5.92261 0.501493 5.94409 0.33791 5.96556C0.757015 6.69082 1.17612 7.4149 1.59522 8.14016C1.76836 8.43838 2.23045 8.16999 2.05851 7.86938V7.8658Z" fill="#272425"/>
<path d="M4.90742 13.3315H2.3916C3.40175 14.392 4.7116 15.1662 6.18384 15.5204L4.91936 13.3315L5.00772 13.1788C5.00772 13.1788 5.00056 13.1765 4.99697 13.1765L4.90742 13.3315Z" fill="#272425"/>
<path d="M4.90744 13.0631H2.39162C2.1552 13.0631 2.04058 13.353 2.20177 13.52C3.2752 14.6258 4.6161 15.4024 6.11222 15.7769C6.33908 15.8342 6.53491 15.5908 6.41431 15.3833L5.14983 13.1944V13.4651C5.17968 13.4138 5.20834 13.3637 5.23819 13.3125C5.32535 13.1622 5.24535 12.9665 5.07819 12.9188C5.07461 12.9188 5.07102 12.9164 5.06744 12.9164C4.95282 12.8842 4.82505 12.9367 4.76535 13.0393C4.7355 13.0906 4.70565 13.1431 4.6758 13.1944C4.50267 13.4938 4.96595 13.7634 5.13908 13.4651C5.16894 13.4138 5.19879 13.3614 5.22864 13.3101C5.12834 13.3506 5.02685 13.3924 4.92655 13.4329C4.93013 13.4329 4.93371 13.4353 4.93729 13.4353C4.88356 13.3041 4.83102 13.1729 4.77729 13.0417C4.66744 13.2313 4.62446 13.353 4.7367 13.5463C4.88117 13.7956 5.02446 14.0449 5.16894 14.2942C5.43043 14.7475 5.69311 15.2008 5.95461 15.6529C6.05491 15.5217 6.1564 15.3904 6.2567 15.2592C4.84535 14.9061 3.5952 14.1833 2.58267 13.1395C2.51938 13.2922 2.4561 13.4437 2.39282 13.5964H4.90864C5.25371 13.5964 5.25371 13.0608 4.90864 13.0608L4.90744 13.0631Z" fill="#272425"/>
<path d="M4.91936 2.67079L6.18384 0.481873C4.7116 0.836156 3.40175 1.60914 2.3916 2.67079H4.90742L4.97906 2.79366C4.97906 2.79366 4.98623 2.79127 4.98981 2.79008L4.92056 2.6696L4.91936 2.67079Z" fill="#272425"/>
<path d="M5.15105 2.80681L6.41553 0.617887C6.53493 0.41152 6.3403 0.168174 6.11344 0.224239C4.61732 0.598801 3.27523 1.37536 2.20299 2.48115C2.0418 2.64816 2.15642 2.93802 2.39284 2.93802H4.90866C4.83105 2.89389 4.75463 2.84975 4.67702 2.80561C4.7009 2.84617 4.72478 2.88792 4.74866 2.92848C4.80598 3.02868 4.93851 3.08833 5.05075 3.05135L5.0615 3.04777C5.22508 2.99409 5.31105 2.81039 5.2215 2.65412C5.19881 2.61356 5.17493 2.5742 5.15225 2.53364C4.97911 2.23542 4.51702 2.50382 4.68896 2.80442C4.71165 2.84498 4.73553 2.88434 4.75822 2.9249C4.81195 2.79369 4.86448 2.66247 4.91822 2.53125C4.91463 2.53125 4.91105 2.53364 4.90747 2.53483C5.00777 2.57539 5.10926 2.61714 5.20956 2.6577C5.18568 2.61714 5.1618 2.57539 5.13792 2.53483C5.09135 2.45372 5.0006 2.40242 4.90628 2.40242H2.39045C2.45374 2.55511 2.51702 2.70661 2.58031 2.85929C3.59284 1.81553 4.84299 1.09265 6.25433 0.739559C6.15404 0.608344 6.05254 0.477128 5.95224 0.345912C5.53075 1.07595 5.10926 1.80479 4.68777 2.53483C4.51463 2.83424 4.97792 3.10383 5.15105 2.80561V2.80681Z" fill="#272425"/>
<path d="M6.45967 5.33569L4.98862 2.7901C4.98862 2.7901 4.98146 2.79249 4.97788 2.79368L6.44653 5.33569L4.90623 8.00057H1.87817H4.90743L6.44773 10.6654L4.99698 13.1752C4.99698 13.1752 5.00414 13.1776 5.00773 13.1776L6.45967 10.6654L4.91937 8.00057L6.45967 5.33569Z" fill="white"/>
<path d="M6.69132 5.20092C6.20057 4.35279 5.71102 3.50466 5.22027 2.65533C5.16296 2.55513 5.03042 2.49549 4.91818 2.53247C4.9146 2.53247 4.91102 2.53485 4.90743 2.53605C4.74385 2.58973 4.65788 2.77343 4.74743 2.92969C5.23699 3.77663 5.72654 4.62357 6.21609 5.47171V5.20092C5.70266 6.08961 5.18923 6.97711 4.67579 7.8658C4.7534 7.82167 4.82982 7.77753 4.90743 7.73339H1.87818C1.73251 7.73339 1.61072 7.85507 1.61072 8.0006C1.61072 8.14613 1.73251 8.2678 1.87818 8.2678H4.90743C4.82982 8.22366 4.7534 8.17953 4.67579 8.13539C5.18923 9.02408 5.70266 9.91158 6.21609 10.8003V10.5295C5.73251 11.3657 5.24893 12.2031 4.76534 13.0393C4.67818 13.1896 4.75818 13.3852 4.92534 13.4329C4.92893 13.4329 4.93251 13.4353 4.93609 13.4353C5.05072 13.4675 5.17848 13.415 5.23818 13.3125C5.50206 12.8556 5.76714 12.3975 6.03102 11.9407C6.19818 11.6508 6.36654 11.3609 6.5337 11.071C6.61012 10.9398 6.76176 10.7561 6.71758 10.5939C6.67699 10.446 6.55758 10.2993 6.48236 10.1692C6.31042 9.87102 6.13729 9.5728 5.96534 9.27339C5.6943 8.8034 5.42206 8.33341 5.15102 7.86461V8.13539C5.66445 7.2467 6.17788 6.3592 6.69132 5.47051C6.86445 5.1711 6.40117 4.90151 6.22803 5.19973C5.95699 5.66972 5.68475 6.13971 5.4137 6.60851C5.24176 6.90673 5.06863 7.20495 4.89669 7.50436C4.82027 7.63677 4.65191 7.83598 4.65191 7.9994C4.65191 8.14732 4.79639 8.32148 4.86564 8.44196C5.04833 8.75807 5.23102 9.07418 5.4137 9.39029C5.68475 9.86028 5.95699 10.3303 6.22803 10.7991V10.5283C5.74445 11.3657 5.25967 12.2031 4.77609 13.0405C4.87639 12.9999 4.97788 12.9582 5.07818 12.9176C5.0746 12.9176 5.07102 12.9152 5.06743 12.9152C5.12117 13.0464 5.1737 13.1777 5.22743 13.3089C5.49131 12.852 5.7552 12.3951 6.01908 11.9395C6.18624 11.6496 6.3534 11.3597 6.52176 11.071C6.59818 10.9398 6.74982 10.7573 6.70564 10.5939C6.66505 10.446 6.54564 10.2993 6.47042 10.1692C6.29848 9.87102 6.12535 9.5728 5.9534 9.27339C5.68236 8.8034 5.41012 8.33341 5.13908 7.86461C5.09251 7.78349 5.00176 7.7322 4.90743 7.7322H1.87818L2.14564 7.9994L1.87818 8.26661H4.90743C5.00176 8.26661 5.09132 8.21531 5.13908 8.1342C5.39579 7.69045 5.65251 7.24551 5.90923 6.80176C6.08594 6.49638 6.26266 6.19101 6.43818 5.88563C6.52296 5.73891 6.66027 5.57191 6.70564 5.40491C6.74982 5.24387 6.60176 5.06494 6.52535 4.93372C6.36057 4.64862 6.19579 4.36472 6.03221 4.07962C5.75758 3.60486 5.48415 3.13129 5.20952 2.65653L5.04952 3.05017L5.06027 3.0466C4.95997 3.00604 4.85848 2.96429 4.75818 2.92373C5.24893 3.77186 5.73848 4.61999 6.22923 5.46932C6.40236 5.76754 6.86445 5.49914 6.69251 5.19854L6.69132 5.20092Z" fill="#272425"/>
<path d="M14.1243 8.00179L15.4138 10.2325C15.6264 9.52628 15.741 8.77716 15.741 8.00179C15.741 7.22642 15.6264 6.4773 15.4138 5.77112L14.1243 8.00179Z" fill="#272425"/>
<path d="M10.812 8.00179C10.812 8.14732 10.9338 8.26899 11.0794 8.26899H14.123C14.0454 8.22486 13.969 8.18072 13.8914 8.13658C14.3212 8.87974 14.7511 9.62409 15.1809 10.3673C15.298 10.57 15.6072 10.5235 15.6705 10.3028C16.1087 8.79266 16.1087 7.20972 15.6705 5.69835C15.606 5.47767 15.298 5.43115 15.1809 5.63394C14.7511 6.3771 14.3212 7.12145 13.8914 7.86461C13.969 7.82047 14.0454 7.77634 14.123 7.7322H11.0794C10.7344 7.7322 10.7344 8.2678 11.0794 8.2678H14.1099C14.4526 8.2678 14.7332 7.47931 14.8681 7.2467C15.1272 6.79937 15.3851 6.35205 15.6442 5.90472C15.4806 5.88325 15.3183 5.86177 15.1547 5.8403C15.5678 7.2634 15.5678 8.7366 15.1547 10.1597C15.3183 10.1382 15.4806 10.1168 15.6442 10.0953C15.3851 9.64795 15.1272 9.20062 14.8681 8.7533C14.7332 8.51949 14.4526 7.7322 14.1099 7.7322H11.0794L11.3469 7.9994C11.3469 7.65466 10.8108 7.65466 10.8108 7.9994L10.812 8.00179Z" fill="#272425"/>
<path d="M13.6084 2.67085C12.5983 1.61039 11.2884 0.836217 9.81616 0.481934L11.0806 2.67085H13.6084Z" fill="#272425"/>
<path d="M13.797 2.48239C12.7236 1.3766 11.3827 0.600038 9.88658 0.225476C9.65971 0.168218 9.46389 0.411564 9.58449 0.619124L10.849 2.80805C10.8955 2.88916 10.9863 2.94045 11.0806 2.94045H13.6084C13.9534 2.94045 13.9534 2.40485 13.6084 2.40485H11.0806C11.1582 2.44899 11.2346 2.49313 11.3122 2.53726L10.0478 0.348342C9.94747 0.479558 9.84598 0.610774 9.74568 0.74199C11.157 1.09508 12.4072 1.81796 13.4197 2.86172C13.6609 3.10984 14.0394 2.73051 13.7982 2.48358L13.797 2.48239Z" fill="#272425"/>
<path d="M11.0436 8.00182L9.50331 5.33575H6.45973L4.91943 8.00182L6.45973 10.6667H9.50331L11.0436 8.00182H11.0806H11.0436Z" fill="#272425"/>
<path d="M11.2753 7.86583C10.7618 6.97714 10.2484 6.08964 9.73496 5.20095C9.6884 5.11984 9.59765 5.06854 9.50332 5.06854H6.45974C6.36541 5.06854 6.27586 5.11984 6.2281 5.20095C5.95705 5.67094 5.68481 6.14093 5.41377 6.60973C5.24183 6.90795 5.06869 7.20617 4.89675 7.50558C4.82034 7.63799 4.65198 7.8372 4.65198 8.00062C4.65198 8.14854 4.79646 8.3227 4.86571 8.44318C5.0484 8.75929 5.23108 9.0754 5.41377 9.39151C5.68481 9.8615 5.95705 10.3315 6.2281 10.8003C6.27466 10.8814 6.36541 10.9327 6.45974 10.9327H9.50332C9.59765 10.9327 9.6872 10.8814 9.73496 10.8003C10.2484 9.9116 10.7618 9.02411 11.2753 8.13542C11.1976 8.17955 11.1212 8.22369 11.0436 8.26783H11.0806C11.2263 8.26783 11.3481 8.14615 11.3481 8.00062C11.3481 7.85509 11.2263 7.73342 11.0806 7.73342H11.0436C10.6985 7.73342 10.6985 8.26902 11.0436 8.26902H11.0806L10.8132 8.00182L11.0806 7.73461H11.0436C10.9493 7.73461 10.8597 7.78591 10.812 7.86702C10.2985 8.75571 9.78511 9.64321 9.27168 10.5319C9.34929 10.4878 9.42571 10.4436 9.50332 10.3995H6.45974C6.53735 10.4436 6.61377 10.4878 6.69138 10.5319C6.17795 9.64321 5.66451 8.75571 5.15108 7.86702V8.1378C5.66451 7.24911 6.17795 6.36162 6.69138 5.47293C6.61377 5.51706 6.53735 5.5612 6.45974 5.60534H9.50332C9.42571 5.5612 9.34929 5.51706 9.27168 5.47293C9.78511 6.36162 10.2985 7.24911 10.812 8.1378C10.9851 8.43602 11.4472 8.16762 11.2753 7.86702V7.86583Z" fill="#272425"/>
<path d="M6.44767 10.6666L4.90737 8.00177H1.82677L0.569458 10.1764C0.920503 11.374 1.55214 12.4512 2.39155 13.3315H4.90737L6.44767 10.6666Z" fill="white"/>
<path d="M6.67936 10.5307C6.16593 9.64199 5.65249 8.7545 5.13906 7.86581C5.09249 7.78469 5.00175 7.7334 4.90742 7.7334H1.82682C1.73249 7.7334 1.64294 7.78469 1.59518 7.86581C1.27996 8.40976 0.965926 8.9549 0.651896 9.49885C0.544433 9.68374 0.370105 9.89488 0.311597 10.1048C0.245926 10.3446 0.469209 10.7311 0.555179 10.9506C0.688911 11.2929 0.851299 11.6234 1.0304 11.9442C1.19637 12.2436 1.38981 12.5252 1.59399 12.7995C1.77309 13.0405 1.99637 13.4103 2.25667 13.5618C2.42742 13.662 2.75816 13.5988 2.94205 13.5988H4.90622C5.00055 13.5988 5.0901 13.5475 5.13787 13.4663C5.6513 12.5777 6.16473 11.6902 6.67816 10.8015C6.8513 10.5021 6.38802 10.2325 6.21488 10.5307C5.70145 11.4194 5.18802 12.3069 4.67458 13.1956C4.75219 13.1514 4.82861 13.1073 4.90622 13.0632H2.39518C2.591 13.0632 2.24712 12.7685 2.19458 12.7041C1.95936 12.4226 1.75637 12.1136 1.56652 11.7999C1.41369 11.5482 1.28354 11.2834 1.16055 11.0162C1.08772 10.8575 1.02682 10.6941 0.96712 10.5295C0.937269 10.4496 0.897866 10.1442 0.809508 10.2957C0.937269 10.0738 1.06622 9.85194 1.19399 9.63007C1.48175 9.13145 1.7707 8.63282 2.05846 8.1342C1.98085 8.17834 1.90443 8.22248 1.82682 8.26661H4.90742C4.82981 8.22248 4.75339 8.17834 4.67578 8.1342C5.18921 9.02289 5.70264 9.91039 6.21607 10.7991C6.38921 11.0973 6.8513 10.8289 6.67936 10.5283V10.5307Z" fill="#272425"/>
<path d="M11.0436 13.3316L9.50331 10.6667H6.45973L4.91943 13.3316L6.18391 15.5205C6.7666 15.6601 7.37436 15.7352 8.00003 15.7352C8.6257 15.7352 9.23346 15.6601 9.81615 15.5205L11.0806 13.3316H11.0436Z" fill="white"/>
<path d="M11.2752 13.1968C10.7618 12.3081 10.2484 11.4206 9.73494 10.5319C9.68837 10.4508 9.59762 10.3995 9.50329 10.3995H6.45971C6.36538 10.3995 6.27583 10.4508 6.22807 10.5319C5.75523 11.3502 5.2824 12.1673 4.81076 12.9856C4.65315 13.2576 4.64359 13.3912 4.80359 13.6668C5.09494 14.1701 5.38509 14.6735 5.67643 15.1769L5.93553 15.6255C6.09673 15.9046 6.6412 15.8891 6.923 15.9284C7.50449 16.0107 8.09076 16.0179 8.67583 15.9738C8.92061 15.9547 9.16419 15.9177 9.40538 15.8783C9.59285 15.8473 9.93792 15.8461 10.0478 15.6553C10.4693 14.9252 10.8908 14.1964 11.3122 13.4664C11.4137 13.291 11.2848 13.0632 11.0806 13.0632H11.0436C10.6985 13.0632 10.6985 13.5988 11.0436 13.5988H11.0806C11.003 13.464 10.9266 13.3304 10.849 13.1956C10.5731 13.6727 10.2973 14.1511 10.0215 14.6282C9.88658 14.862 9.75046 15.097 9.61553 15.3308C9.60598 15.3475 9.59643 15.3642 9.58688 15.3809C9.68598 15.2103 9.29912 15.3547 9.26329 15.3606C8.84658 15.437 8.4227 15.4608 8.00121 15.4656C7.63344 15.4692 7.26568 15.4382 6.9015 15.3869C6.73792 15.3642 6.57673 15.3308 6.41553 15.2974C6.37374 15.2891 6.44897 15.4406 6.38568 15.3308C6.25076 15.097 6.11464 14.862 5.97971 14.6282C5.70389 14.1511 5.42807 13.6727 5.15225 13.1956V13.4664C5.66568 12.5777 6.17912 11.6902 6.69255 10.8015C6.61494 10.8456 6.53852 10.8897 6.46091 10.9339H9.50449C9.42688 10.8897 9.35046 10.8456 9.27285 10.8015C9.78628 11.6902 10.2997 12.5777 10.8131 13.4664C10.9863 13.7646 11.4484 13.4962 11.2764 13.1956L11.2752 13.1968Z" fill="#272425"/>
<path d="M14.1242 8.00177H11.0806L9.54028 10.6666L11.0806 13.3315H13.6083C14.4334 12.4655 15.0591 11.4074 15.4137 10.2324L14.1242 8.00177Z" fill="white"/>
<path d="M14.1242 7.73337H11.0806C10.9863 7.73337 10.8967 7.78466 10.8489 7.86578C10.5779 8.33577 10.3057 8.80576 10.0346 9.27456C9.86268 9.57278 9.68954 9.871 9.5176 10.1704C9.44118 10.3028 9.27283 10.502 9.27283 10.6655C9.27283 10.8134 9.4173 10.9875 9.48656 11.108C9.66924 11.4241 9.85193 11.7402 10.0346 12.0563C10.3057 12.5263 10.5779 12.9963 10.8489 13.4651C10.8955 13.5462 10.9863 13.5975 11.0806 13.5975H13.0543C13.2394 13.5975 13.5713 13.6619 13.7433 13.5606C13.9845 13.4198 14.1875 13.0798 14.3558 12.8627C14.5767 12.5788 14.7725 12.2782 14.954 11.9681C15.1116 11.6985 15.2489 11.4146 15.3695 11.1259C15.471 10.8837 15.7445 10.4257 15.6704 10.1585C15.6131 9.95211 15.44 9.74336 15.3349 9.56085C15.0078 8.99543 14.6806 8.43001 14.3546 7.86339C14.1815 7.56518 13.7182 7.83357 13.8913 8.13418C14.1779 8.63041 14.4645 9.12665 14.7522 9.62288C14.8848 9.8531 15.0185 10.0821 15.151 10.3124C15.1606 10.3291 15.1701 10.3446 15.1785 10.3613C15.0782 10.1883 14.9934 10.6332 14.9636 10.7132C14.8358 11.0543 14.6686 11.38 14.4919 11.6973C14.351 11.949 14.1886 12.1887 14.0215 12.4226C13.9224 12.5597 13.8149 12.6898 13.7075 12.8198C13.6501 12.8878 13.4185 13.0619 13.5928 13.0619H11.0806C11.1582 13.1061 11.2346 13.1502 11.3122 13.1943C10.7988 12.3057 10.2854 11.4182 9.77193 10.5295V10.8002C10.2854 9.91156 10.7988 9.02406 11.3122 8.13537C11.2346 8.1795 11.1582 8.22364 11.0806 8.26778H14.1242C14.4692 8.26778 14.4692 7.73218 14.1242 7.73218V7.73337Z" fill="#272425"/>
<path d="M9.50326 10.9339H9.54027C9.6346 10.9339 9.72415 10.8826 9.77191 10.8015C10.2853 9.91278 10.7988 9.02528 11.3122 8.13659C11.4137 7.96124 11.2847 7.7334 11.0806 7.7334H11.0436C10.9492 7.7334 10.8597 7.78469 10.8119 7.86581C10.2985 8.7545 9.78505 9.64199 9.27161 10.5307C9.09848 10.8301 9.56176 11.0997 9.7349 10.8015C10.2483 9.91278 10.7618 9.02528 11.2752 8.13659C11.1976 8.18073 11.1212 8.22486 11.0436 8.269H11.0806C11.003 8.1342 10.9265 8.0006 10.8489 7.86581C10.3355 8.7545 9.82206 9.64199 9.30863 10.5307C9.38624 10.4865 9.46266 10.4424 9.54027 10.3983H9.50326C9.15818 10.3983 9.15818 10.9339 9.50326 10.9339Z" fill="#272425"/>
<path d="M11.0436 13.3315H11.0806L9.54031 10.6666H9.5033L11.0436 13.3315Z" fill="white"/>
<path d="M11.0435 13.5987H11.0806C11.2847 13.5987 11.4137 13.3721 11.3122 13.1955C10.7988 12.3069 10.2853 11.4194 9.7719 10.5307C9.72534 10.4495 9.63459 10.3983 9.54026 10.3983H9.50325C9.29907 10.3983 9.17011 10.6249 9.27161 10.8014C9.78504 11.6901 10.2985 12.5776 10.8119 13.4663C10.985 13.7645 11.4471 13.4961 11.2752 13.1955C10.7618 12.3069 10.2483 11.4194 9.73489 10.5307C9.65728 10.6655 9.58086 10.7991 9.50325 10.9339H9.54026C9.46265 10.8897 9.38623 10.8456 9.30862 10.8014C9.82205 11.6901 10.3355 12.5776 10.8489 13.4663C10.9265 13.3315 11.0029 13.1979 11.0806 13.0631H11.0435C10.6985 13.0631 10.6985 13.5987 11.0435 13.5987Z" fill="#272425"/>
<path d="M9.54028 5.33571L11.0806 8.00059H14.1242L15.4137 5.76992C15.0603 4.59494 14.4346 3.53686 13.6083 2.67084H11.0806L9.54028 5.33571Z" fill="white"/>
<path d="M9.30864 5.47168C9.82208 6.36037 10.3355 7.24787 10.8489 8.13656C10.8955 8.21767 10.9863 8.26897 11.0806 8.26897H13.9295C14.2758 8.26897 14.3594 8.1294 14.5242 7.84311C14.8191 7.33256 15.114 6.8232 15.4089 6.31266C15.4866 6.17786 15.5642 6.04307 15.6418 5.90827C15.797 5.63988 15.4543 5.06014 15.3433 4.80964C15.1272 4.32175 14.8704 3.8625 14.5672 3.42352C14.4454 3.24697 14.3116 3.07878 14.1767 2.91178C14.0537 2.75909 13.877 2.46683 13.6776 2.41316C13.2967 2.30818 12.7761 2.40361 12.3869 2.40361H11.0794C10.9851 2.40361 10.8955 2.45491 10.8477 2.53602C10.3343 3.42471 9.82088 4.31221 9.30745 5.2009C9.13431 5.50031 9.5976 5.7699 9.77073 5.47168C10.2842 4.58299 10.7976 3.69549 11.311 2.8068C11.2334 2.85094 11.157 2.89508 11.0794 2.93921H13.5713C13.6609 2.93921 13.4985 2.94756 13.5152 2.96546C13.6466 3.10502 13.7672 3.25413 13.8877 3.40324C14.1146 3.68476 14.3092 3.99252 14.4907 4.30267C14.6495 4.57464 14.7869 4.86093 14.9086 5.1508C14.9648 5.28559 15.0137 5.42397 15.0627 5.56115C15.0675 5.71622 15.1057 5.74246 15.1773 5.63749C15.1725 5.64584 15.1677 5.65538 15.1618 5.66373C15.0245 5.90111 14.8872 6.1385 14.7498 6.37588C14.4633 6.87211 14.1767 7.36835 13.8889 7.86458C13.9666 7.82045 14.043 7.77631 14.1206 7.73217H11.077C11.1546 7.77631 11.231 7.82045 11.3086 7.86458C10.7952 6.97589 10.2818 6.0884 9.76834 5.19971C9.59521 4.90149 9.13193 5.16988 9.30506 5.47049L9.30864 5.47168Z" fill="#272425"/>
<path d="M11.3122 7.86583C10.7988 6.97714 10.2853 6.08964 9.7719 5.20095C9.72534 5.11984 9.63459 5.06854 9.54026 5.06854H9.50325C9.29907 5.06854 9.17011 5.29519 9.27161 5.47173C9.78504 6.36042 10.2985 7.24792 10.8119 8.13661C10.8585 8.21773 10.9492 8.26902 11.0435 8.26902H11.0806C11.4256 8.26902 11.4256 7.73342 11.0806 7.73342H11.0435C11.1212 7.77756 11.1976 7.82169 11.2752 7.86583C10.7618 6.97714 10.2483 6.08964 9.73489 5.20095C9.65728 5.33575 9.58086 5.46935 9.50325 5.60414H9.54026C9.46265 5.56001 9.38623 5.51587 9.30862 5.47173C9.82205 6.36042 10.3355 7.24792 10.8489 8.13661C11.0221 8.43483 11.4841 8.16643 11.3122 7.86583Z" fill="#272425"/>
<path d="M6.45973 5.33573H9.50331L11.0436 2.67085H11.0806L9.81615 0.481929C9.23346 0.342363 8.6257 0.267212 8.00003 0.267212C7.37436 0.267212 6.7666 0.342363 6.18391 0.481929L4.91943 2.67085L6.45973 5.33573Z" fill="white"/>
<path d="M6.45975 5.6041H9.50333C9.59766 5.6041 9.68721 5.5528 9.73497 5.47169C10.2484 4.583 10.7618 3.6955 11.2753 2.80681C11.1977 2.85095 11.1212 2.89508 11.0436 2.93922H11.0806C11.2848 2.93922 11.4138 2.71257 11.3123 2.53603L10.0478 0.347109C9.88303 0.0608191 9.13796 0.0810979 8.84184 0.0453117C8.22811 -0.0274535 7.60602 -0.00836751 6.99467 0.0655906C6.72124 0.0977981 6.10273 0.0906409 5.94632 0.361423C5.85676 0.516496 5.76721 0.67157 5.67766 0.826643C5.39587 1.31334 5.11408 1.80122 4.83229 2.28791C4.66035 2.58494 4.63885 2.71854 4.81199 3.01795C5.28482 3.83626 5.75766 4.65338 6.2293 5.47169C6.40244 5.76991 6.86452 5.50151 6.69258 5.20091C6.17915 4.31222 5.66572 3.42472 5.15229 2.53603V2.80681C5.42811 2.32966 5.70393 1.85132 5.97975 1.37417C6.11467 1.14037 6.25079 0.905373 6.38572 0.67157C6.39527 0.65487 6.40482 0.638169 6.41438 0.621469C6.31527 0.79205 6.70214 0.647712 6.73796 0.641748C7.15467 0.565404 7.57736 0.541547 8.00005 0.536775C8.36781 0.533197 8.73557 0.564211 9.09975 0.615505C9.26333 0.638169 9.42452 0.67157 9.58572 0.70497C9.62751 0.71332 9.55229 0.561826 9.61557 0.67157C9.75049 0.905373 9.88661 1.14037 10.0215 1.37417C10.2974 1.85132 10.5732 2.32966 10.849 2.80681C10.9266 2.67202 11.003 2.53842 11.0806 2.40362H11.0436C10.9493 2.40362 10.8597 2.45491 10.812 2.53603C10.2986 3.42472 9.78512 4.31222 9.27169 5.20091C9.3493 5.15677 9.42572 5.11263 9.50333 5.0685H6.45975C6.11467 5.0685 6.11467 5.6041 6.45975 5.6041Z" fill="#272425"/>
<path d="M11.0806 2.67084H11.0436L9.5033 5.33571H9.54031L11.0806 2.67084Z" fill="white"/>
<path d="M11.0806 2.40363H11.0435C10.9492 2.40363 10.8597 2.45492 10.8119 2.53603C10.2985 3.42472 9.78504 4.31222 9.27161 5.20091C9.17011 5.37626 9.29907 5.6041 9.50325 5.6041H9.54026C9.63459 5.6041 9.72414 5.55281 9.7719 5.47169C10.2853 4.583 10.7988 3.69551 11.3122 2.80682C11.4853 2.50741 11.0221 2.23782 10.8489 2.53603C10.3355 3.42472 9.82205 4.31222 9.30862 5.20091C9.38623 5.15678 9.46265 5.11264 9.54026 5.0685H9.50325C9.58086 5.2033 9.65728 5.3369 9.73489 5.47169C10.2483 4.583 10.7618 3.69551 11.2752 2.80682C11.1976 2.85095 11.1212 2.89509 11.0435 2.93923H11.0806C11.4256 2.93923 11.4256 2.40363 11.0806 2.40363Z" fill="#272425"/>
<path d="M4.90737 8.00175L6.44767 5.33687L4.90737 2.672H2.39155C1.55334 3.55234 0.920503 4.6295 0.569458 5.82714L1.82677 8.00175H4.90737Z" fill="white"/>
<path d="M5.13904 8.13656C5.41009 7.66657 5.68233 7.19658 5.95337 6.72778C6.12531 6.42956 6.29845 6.13134 6.47039 5.83193C6.5468 5.69952 6.71516 5.50031 6.71516 5.33689C6.71516 5.18897 6.57069 5.01481 6.50143 4.89433C6.31874 4.57822 6.13606 4.26211 5.95337 3.946C5.68233 3.47601 5.41009 3.00602 5.13904 2.53722C5.09248 2.4561 5.00173 2.40481 4.9074 2.40481H3.01845C2.80472 2.40481 2.53009 2.35709 2.32113 2.41435C2.08591 2.47877 1.86979 2.85333 1.72531 3.03464C1.49725 3.31855 1.29307 3.62154 1.10442 3.93288C0.926506 4.22752 0.777253 4.53766 0.639939 4.85258C0.519342 5.12814 0.303223 5.52298 0.303223 5.82835C0.303223 6.02637 0.522924 6.28045 0.614864 6.4391C0.942029 7.00572 1.26919 7.57114 1.59636 8.13775C1.64292 8.21887 1.73367 8.27016 1.828 8.27016H4.9086C5.25367 8.27016 5.25367 7.73456 4.9086 7.73456H1.8268C1.90442 7.7787 1.98083 7.82283 2.05845 7.86697C1.78382 7.39221 1.51039 6.91744 1.23576 6.44268C1.10083 6.21007 0.967103 5.97746 0.832178 5.74485C0.822626 5.72815 0.813073 5.71145 0.803521 5.69594C0.901432 5.86533 0.98979 5.41085 1.01845 5.33331C1.14621 4.98499 1.31337 4.65337 1.49367 4.3301C1.63576 4.07364 1.79934 3.83029 1.97009 3.59172C2.07039 3.45215 2.17904 3.31855 2.29009 3.18733C2.34501 3.12172 2.58263 2.94041 2.40949 2.94041H4.9086C4.83098 2.89627 4.75457 2.85214 4.67695 2.808C5.19039 3.69669 5.70382 4.58419 6.21725 5.47288V5.20209C5.70382 6.09078 5.19039 6.97828 4.67695 7.86697C4.50382 8.16638 4.9671 8.43597 5.14024 8.13775L5.13904 8.13656Z" fill="#272425"/>
</g>
<defs>
<clipPath id="clip0_850_1094">
<rect width="16" height="16" fill="white"/>
</clipPath>
</defs>
</svg>
