<svg width="25" height="24" viewBox="0 0 25 24" fill="none" xmlns="http://www.w3.org/2000/svg">
<g clip-path="url(#clip0_790_776)">
<path d="M14.8667 23.2789C17.0751 22.7475 19.0398 21.588 20.5551 19.9955H16.7634L14.8667 23.2789Z" fill="#272425"/>
<path d="M14.9725 23.6672C17.2167 23.1053 19.2298 21.9405 20.8382 20.2818C21.08 20.0313 20.908 19.5965 20.5534 19.5965H16.7618C16.6203 19.5965 16.4859 19.6734 16.4143 19.7951L14.5176 23.0785C14.2579 23.5276 14.9528 23.932 15.2125 23.4847C15.8448 22.3896 16.477 21.2963 17.1092 20.2013C16.9928 20.2675 16.8782 20.3337 16.7618 20.3999H20.5534C20.4585 20.1709 20.3636 19.9436 20.2686 19.7146C18.7498 21.2802 16.8746 22.3646 14.7576 22.8942C14.2543 23.0194 14.4674 23.7942 14.9707 23.669L14.9725 23.6672Z" fill="#272425"/>
<path d="M2.88289 12.0027L0.996922 8.74078C0.694235 9.775 0.53125 10.8701 0.53125 12.0027C0.53125 13.1353 0.694235 14.2304 0.996922 15.2646L2.88289 12.0027Z" fill="#272425"/>
<path d="M3.23034 11.7987C2.60168 10.7108 1.97303 9.62469 1.34437 8.53679C1.16885 8.2344 0.703175 8.30061 0.610041 8.63342C-0.0132428 10.8468 -0.0132428 13.1586 0.610041 15.372C0.703175 15.7048 1.16885 15.771 1.34437 15.4686C1.97303 14.3807 2.60168 13.2946 3.23034 12.2067C3.11392 12.2729 2.99929 12.3391 2.88288 12.4053H2.95989C3.1784 12.4053 3.36109 12.2228 3.36109 12.0045C3.36109 11.7862 3.1784 11.6037 2.95989 11.6037H2.88288C2.36526 11.6037 2.36526 12.4071 2.88288 12.4071H2.95989L2.5587 12.0063L2.95989 11.6055H2.88288C2.74138 11.6055 2.60706 11.6824 2.53541 11.8041C1.90676 12.892 1.2781 13.9781 0.649444 15.066C0.894817 15.0982 1.1384 15.1304 1.38377 15.1626C0.796309 13.0816 0.796309 10.9327 1.38377 8.85171C1.1384 8.88392 0.894817 8.91613 0.649444 8.94834C1.2781 10.0362 1.90676 11.1223 2.53541 12.2102C2.79512 12.6576 3.48825 12.255 3.23034 11.8041V11.7987Z" fill="#272425"/>
<path d="M7.50371 19.9973H3.72998C5.2452 21.588 7.20998 22.7493 9.41834 23.2807L7.52162 19.9973L7.65416 19.7683C7.65416 19.7683 7.64341 19.7647 7.63804 19.7647L7.50371 19.9973Z" fill="#272425"/>
<path d="M7.50362 19.5947H3.72989C3.37526 19.5947 3.20332 20.0295 3.44511 20.28C5.05526 21.9387 7.06661 23.1036 9.31078 23.6654C9.65108 23.7513 9.94481 23.3863 9.76392 23.0749L7.8672 19.7915V20.1977C7.91198 20.1208 7.95496 20.0456 7.99974 19.9687C8.13049 19.7432 8.01049 19.4498 7.75974 19.3782C7.75437 19.3782 7.74899 19.3746 7.74362 19.3746C7.57168 19.3263 7.38004 19.405 7.29049 19.5589C7.24571 19.6359 7.20093 19.7146 7.15616 19.7915C6.89646 20.2407 7.59138 20.645 7.85108 20.1977C7.89586 20.1208 7.94064 20.042 7.98541 19.9651C7.83496 20.0259 7.68272 20.0886 7.53228 20.1494C7.53765 20.1494 7.54302 20.153 7.5484 20.153C7.4678 19.9562 7.38899 19.7593 7.3084 19.5625C7.14362 19.847 7.07914 20.0295 7.2475 20.3194C7.46422 20.6934 7.67914 21.0673 7.89586 21.4413C8.2881 22.1212 8.68213 22.8012 9.07437 23.4793C9.22481 23.2825 9.37705 23.0857 9.5275 22.8888C7.41049 22.3592 5.53526 21.2749 4.01646 19.7092C3.92153 19.9383 3.82661 20.1655 3.73168 20.3945H7.50541C8.02302 20.3945 8.02302 19.5911 7.50541 19.5911L7.50362 19.5947Z" fill="#272425"/>
<path d="M7.52162 4.00628L9.41834 0.7229C7.20998 1.25433 5.2452 2.4138 3.72998 4.00628H7.50371L7.61117 4.19058C7.61117 4.19058 7.62192 4.187 7.62729 4.18521L7.52341 4.00449L7.52162 4.00628Z" fill="#272425"/>
<path d="M7.86915 4.21027L9.76587 0.926891C9.94497 0.61734 9.65304 0.252321 9.31274 0.336419C7.06856 0.898262 5.05542 2.0631 3.44707 3.72179C3.20527 3.97229 3.37721 4.4071 3.73184 4.4071H7.50557C7.38915 4.34089 7.27453 4.27469 7.15811 4.20848C7.19393 4.26932 7.22975 4.33195 7.26557 4.39278C7.35154 4.54308 7.55035 4.63255 7.71871 4.57708L7.73483 4.57171C7.9802 4.49119 8.10915 4.21564 7.97483 3.98124C7.9408 3.9204 7.90498 3.86136 7.87095 3.80052C7.61124 3.35319 6.91811 3.75579 7.17602 4.20669C7.21005 4.26753 7.24587 4.32658 7.2799 4.38741C7.3605 4.19059 7.4393 3.99377 7.5199 3.79694C7.51453 3.79694 7.50915 3.80052 7.50378 3.80231C7.65423 3.86315 7.80647 3.92577 7.95692 3.98661C7.9211 3.92577 7.88527 3.86315 7.84945 3.80231C7.7796 3.68064 7.64348 3.6037 7.50199 3.6037H3.72826C3.82318 3.83273 3.91811 4.05997 4.01304 4.289C5.53184 2.72336 7.40707 1.63904 9.52408 1.1094C9.37363 0.912576 9.22139 0.715752 9.07095 0.518928C8.43871 1.61399 7.80647 2.70725 7.17423 3.80231C6.91453 4.25143 7.60945 4.65581 7.86915 4.20848V4.21027Z" fill="#272425"/>
<path d="M9.8322 8.00363L7.62563 4.18524C7.62563 4.18524 7.61489 4.18882 7.60951 4.19061L9.8125 8.00363L7.50205 12.0009H2.95996H7.50384L9.81429 15.9983L7.63817 19.763C7.63817 19.763 7.64892 19.7665 7.65429 19.7665L9.8322 15.9983L7.52175 12.0009L9.8322 8.00363Z" fill="white"/>
<path d="M10.1795 7.80142C9.44337 6.52922 8.70904 5.25702 7.97292 3.98303C7.88695 3.83273 7.68815 3.74326 7.51979 3.79873C7.51441 3.79873 7.50904 3.80231 7.50367 3.8041C7.2583 3.88462 7.12934 4.16017 7.26367 4.39457C7.998 5.66498 8.73233 6.93539 9.46665 8.20759V7.80142C8.6965 9.13445 7.92636 10.4657 7.15621 11.7987C7.27262 11.7325 7.38725 11.6663 7.50367 11.6001H2.95979C2.74128 11.6001 2.55859 11.7826 2.55859 12.0009C2.55859 12.2192 2.74128 12.4017 2.95979 12.4017H7.50367C7.38725 12.3355 7.27262 12.2693 7.15621 12.2031C7.92636 13.5361 8.6965 14.8674 9.46665 16.2004V15.7943C8.74128 17.0486 8.01591 18.3047 7.29053 19.559C7.15979 19.7844 7.27979 20.0779 7.53053 20.1494C7.53591 20.1494 7.54128 20.153 7.54665 20.153C7.71859 20.2013 7.91024 20.1226 7.99979 19.9687C8.39561 19.2834 8.79322 18.5963 9.18904 17.911C9.43979 17.4762 9.69233 17.0414 9.94307 16.6066C10.0577 16.4098 10.2852 16.1342 10.2189 15.8909C10.158 15.669 9.97889 15.4489 9.86606 15.2539C9.60815 14.8066 9.34845 14.3592 9.09053 13.9101C8.68397 13.2051 8.27561 12.5001 7.86904 11.7969V12.2031C8.63919 10.8701 9.40934 9.53884 10.1795 8.2058C10.4392 7.75668 9.74427 7.3523 9.48456 7.79963C9.078 8.50461 8.66964 9.2096 8.26307 9.9128C8.00516 10.3601 7.74546 10.8075 7.48755 11.2566C7.37292 11.4552 7.12039 11.754 7.12039 11.9991C7.12039 12.221 7.3371 12.4822 7.44098 12.663C7.71501 13.1371 7.98904 13.6113 8.26307 14.0855C8.66964 14.7905 9.078 15.4954 9.48456 16.1986V15.7925C8.75919 17.0486 8.03203 18.3047 7.30665 19.5608C7.4571 19.4999 7.60934 19.4373 7.75979 19.3765C7.75442 19.3765 7.74904 19.3729 7.74367 19.3729C7.82427 19.5697 7.90307 19.7665 7.98367 19.9633C8.37949 19.278 8.77531 18.5927 9.17113 17.9092C9.42188 17.4744 9.67262 17.0396 9.92516 16.6066C10.0398 16.4098 10.2673 16.136 10.201 15.8909C10.1401 15.669 9.96098 15.4489 9.84815 15.2539C9.59024 14.8066 9.33053 14.3592 9.07262 13.9101C8.66606 13.2051 8.2577 12.5001 7.85113 11.7969C7.78128 11.6753 7.64516 11.5983 7.50367 11.5983H2.95979L3.36098 11.9991L2.95979 12.3999H7.50367C7.64516 12.3999 7.77949 12.323 7.85113 12.2013C8.23621 11.5357 8.62128 10.8683 9.00636 10.2027C9.27143 9.74461 9.5365 9.28654 9.79979 8.82848C9.92695 8.60839 10.1329 8.35789 10.201 8.10739C10.2673 7.86583 10.0452 7.59743 9.93054 7.40061C9.68337 6.97297 9.43621 6.54711 9.19083 6.11947C8.77889 5.40732 8.36874 4.69696 7.9568 3.98482L7.7168 4.57529L7.73292 4.56992C7.58248 4.50909 7.43024 4.44646 7.27979 4.38563C8.01591 5.65782 8.75024 6.93002 9.48636 8.20401C9.74606 8.65134 10.4392 8.24874 10.1813 7.79784L10.1795 7.80142Z" fill="#272425"/>
<path d="M21.329 12.0027L23.2634 15.3487C23.5822 14.2894 23.7541 13.1657 23.7541 12.0027C23.7541 10.8396 23.5822 9.71595 23.2634 8.65668L21.329 12.0027Z" fill="#272425"/>
<path d="M16.3607 12.0027C16.3607 12.221 16.5434 12.4035 16.7619 12.4035H21.3272C21.2108 12.3373 21.0962 12.2711 20.9798 12.2049C21.6246 13.3196 22.2693 14.4361 22.9141 15.5509C23.0896 15.8551 23.5535 15.7853 23.6484 15.4543C24.3058 13.189 24.3058 10.8146 23.6484 8.54753C23.5517 8.2165 23.0896 8.14672 22.9141 8.4509C22.2693 9.56564 21.6246 10.6822 20.9798 11.7969C21.0962 11.7307 21.2108 11.6645 21.3272 11.5983H16.7619C16.2443 11.5983 16.2443 12.4017 16.7619 12.4017H21.3075C21.8216 12.4017 22.2425 11.219 22.4449 10.87C22.8335 10.1991 23.2204 9.52807 23.609 8.85708C23.3637 8.82487 23.1201 8.79266 22.8747 8.76045C23.4944 10.8951 23.4944 13.1049 22.8747 15.2395C23.1201 15.2073 23.3637 15.1751 23.609 15.1429C23.2204 14.4719 22.8335 13.8009 22.4449 13.1299C22.2425 12.7792 21.8216 11.5983 21.3075 11.5983H16.7619L17.1631 11.9991C17.1631 11.482 16.3589 11.482 16.3589 11.9991L16.3607 12.0027Z" fill="#272425"/>
<path d="M20.5555 4.00628C19.0403 2.41559 17.0755 1.25433 14.8672 0.7229L16.7639 4.00628H20.5555Z" fill="#272425"/>
<path d="M20.8383 3.72356C19.2281 2.06487 17.2168 0.900027 14.9726 0.338184C14.6323 0.252297 14.3386 0.617316 14.5195 0.928656L16.4162 4.21204C16.4861 4.33371 16.6222 4.41065 16.7637 4.41065H20.5553C21.0729 4.41065 21.0729 3.60725 20.5553 3.60725H16.7637C16.8801 3.67346 16.9947 3.73966 17.1111 3.80586L15.2144 0.522483C15.064 0.719307 14.9117 0.916131 14.7613 1.11295C16.8783 1.64259 18.7535 2.72691 20.2723 4.29256C20.6341 4.66473 21.2019 4.09573 20.8401 3.72535L20.8383 3.72356Z" fill="#272425"/>
<path d="M16.7082 12.0027L14.3978 8.0036H9.83242L7.52197 12.0027L9.83242 16H14.3978L16.7082 12.0027H16.7638H16.7082Z" fill="#272425"/>
<path d="M17.0555 11.7987C16.2854 10.4657 15.5152 9.13443 14.7451 7.8014C14.6752 7.67972 14.5391 7.60278 14.3976 7.60278H9.83225C9.69075 7.60278 9.55643 7.67972 9.48478 7.8014C9.07822 8.50638 8.66986 9.21137 8.26329 9.91457C8.00538 10.3619 7.74568 10.8092 7.48777 11.2583C7.37314 11.457 7.12061 11.7558 7.12061 12.0009C7.12061 12.2228 7.33732 12.484 7.4412 12.6647C7.71523 13.1389 7.98926 13.6131 8.26329 14.0872C8.66986 14.7922 9.07822 15.4972 9.48478 16.2004C9.55464 16.3221 9.69075 16.399 9.83225 16.399H14.3976C14.5391 16.399 14.6734 16.3221 14.7451 16.2004C15.5152 14.8674 16.2854 13.5361 17.0555 12.2031C16.9391 12.2693 16.8245 12.3355 16.7081 12.4017H16.7636C16.9821 12.4017 17.1648 12.2192 17.1648 12.0009C17.1648 11.7826 16.9821 11.6001 16.7636 11.6001H16.7081C16.1905 11.6001 16.1905 12.4035 16.7081 12.4035H16.7636L16.3624 12.0027L16.7636 11.6019H16.7081C16.5666 11.6019 16.4322 11.6788 16.3606 11.8005C15.5905 13.1335 14.8203 14.4648 14.0502 15.7978C14.1666 15.7316 14.2812 15.6654 14.3976 15.5992H9.83225C9.94866 15.6654 10.0633 15.7316 10.1797 15.7978C9.40956 14.4648 8.63941 13.1335 7.86926 11.8005V12.2067C8.63941 10.8736 9.40956 9.54239 10.1797 8.20936C10.0633 8.27556 9.94866 8.34177 9.83225 8.40797H14.3976C14.2812 8.34177 14.1666 8.27556 14.0502 8.20936C14.8203 9.54239 15.5905 10.8736 16.3606 12.2067C16.6203 12.654 17.3134 12.2514 17.0555 11.8005V11.7987Z" fill="#272425"/>
<path d="M9.81438 16L7.50394 12.0027H2.88304L0.99707 15.2646C1.52364 17.0611 2.4711 18.6768 3.7302 19.9973H7.50394L9.81438 16Z" fill="white"/>
<path d="M10.1618 15.796C9.39165 14.463 8.6215 13.1317 7.85135 11.7987C7.7815 11.677 7.64538 11.6001 7.50389 11.6001H2.88299C2.7415 11.6001 2.60717 11.677 2.53553 11.7987C2.06269 12.6146 1.59165 13.4323 1.1206 14.2483C0.959411 14.5256 0.697918 14.8423 0.610157 15.1572C0.51165 15.5169 0.846575 16.0966 0.97553 16.4259C1.17613 16.9394 1.41971 17.435 1.68837 17.9164C1.93732 18.3655 2.22747 18.7878 2.53374 19.1993C2.8024 19.5607 3.13732 20.1154 3.52777 20.3427C3.78389 20.493 4.28001 20.3981 4.55583 20.3981H7.5021C7.64359 20.3981 7.77792 20.3212 7.84956 20.1995C8.61971 18.8665 9.38986 17.5352 10.16 16.2022C10.4197 15.7531 9.72478 15.3487 9.46508 15.796C8.69493 17.1291 7.92478 18.4603 7.15463 19.7933C7.27105 19.7271 7.38568 19.6609 7.5021 19.5947H3.73553C4.02926 19.5947 3.51344 19.1528 3.43463 19.0561C3.0818 18.6339 2.77732 18.1704 2.49255 17.6999C2.26329 17.3223 2.06807 16.9251 1.88359 16.5243C1.77434 16.2863 1.68299 16.0412 1.59344 15.7942C1.54866 15.6744 1.48956 15.2163 1.35702 15.4435C1.54866 15.1107 1.7421 14.7779 1.93374 14.4451C2.36538 13.6972 2.79881 12.9492 3.23046 12.2013C3.11404 12.2675 2.99941 12.3337 2.88299 12.3999H7.50389C7.38747 12.3337 7.27284 12.2675 7.15643 12.2013C7.92657 13.5343 8.69672 14.8656 9.46687 16.1986C9.72657 16.6459 10.4197 16.2434 10.1618 15.7924V15.796Z" fill="#272425"/>
<path d="M16.7078 19.9973L14.3973 16H9.83193L7.52148 19.9973L9.4182 23.2807C10.2922 23.49 11.2039 23.6028 12.1424 23.6028C13.0809 23.6028 13.9925 23.49 14.8666 23.2807L16.7633 19.9973H16.7078Z" fill="white"/>
<path d="M17.0552 19.7951C16.285 18.4621 15.5149 17.1308 14.7447 15.7978C14.6749 15.6761 14.5388 15.5992 14.3973 15.5992H9.8319C9.69041 15.5992 9.55608 15.6761 9.48444 15.7978C8.77519 17.0253 8.06593 18.2509 7.35847 19.4784C7.12205 19.8864 7.10772 20.0868 7.34772 20.5001C7.78474 21.2552 8.21996 22.0103 8.65698 22.7654L9.04563 23.4381C9.28743 23.8568 10.1041 23.8336 10.5268 23.8926C11.3991 24.0161 12.2785 24.0268 13.1561 23.9606C13.5232 23.932 13.8886 23.8765 14.2504 23.8175C14.5316 23.771 15.0492 23.7692 15.214 23.4829C15.8462 22.3878 16.4785 21.2946 17.1107 20.1995C17.2629 19.9365 17.0695 19.5947 16.7632 19.5947H16.7077C16.1901 19.5947 16.1901 20.3981 16.7077 20.3981H16.7632C16.6468 20.1959 16.5322 19.9955 16.4158 19.7933C16.0021 20.509 15.5883 21.2266 15.1746 21.9423C14.9722 22.293 14.768 22.6455 14.5656 22.9962C14.5513 23.0212 14.537 23.0463 14.5226 23.0713C14.6713 22.8155 14.091 23.032 14.0373 23.0409C13.4122 23.1554 12.7764 23.1912 12.1441 23.1984C11.5925 23.2037 11.0409 23.1572 10.4946 23.0803C10.2492 23.0463 10.0074 22.9962 9.76563 22.9461C9.70295 22.9336 9.81578 23.1608 9.72086 22.9962C9.51847 22.6455 9.31429 22.293 9.1119 21.9423C8.69817 21.2266 8.28444 20.509 7.87071 19.7933V20.1995C8.64086 18.8665 9.41101 17.5352 10.1812 16.2022C10.0647 16.2684 9.95011 16.3346 9.83369 16.4008H14.3991C14.2826 16.3346 14.168 16.2684 14.0516 16.2022C14.8218 17.5352 15.5919 18.8665 16.3621 20.1995C16.6218 20.6468 17.3149 20.2442 17.057 19.7933L17.0552 19.7951Z" fill="#272425"/>
<path d="M21.3289 12.0027H16.7636L14.4531 16L16.7636 19.9973H20.5552C21.7928 18.6983 22.7313 17.1112 23.2633 15.3487L21.3289 12.0027Z" fill="white"/>
<path d="M21.3288 11.6001H16.7634C16.6219 11.6001 16.4876 11.6771 16.4159 11.7987C16.0094 12.5037 15.601 13.2087 15.1944 13.9119C14.9365 14.3592 14.6768 14.8066 14.4189 15.2557C14.3043 15.4543 14.0518 15.7531 14.0518 15.9982C14.0518 16.2201 14.2685 16.4814 14.3724 16.6621C14.6464 17.1362 14.9204 17.6104 15.1944 18.0846C15.601 18.7896 16.0094 19.4945 16.4159 20.1977C16.4858 20.3194 16.6219 20.3964 16.7634 20.3964H19.724C20.0016 20.3964 20.4995 20.493 20.7574 20.3409C21.1192 20.1298 21.4237 19.6198 21.6762 19.2941C22.0076 18.8683 22.3013 18.4174 22.5735 17.9522C22.81 17.5478 23.0159 17.1219 23.1968 16.6889C23.3491 16.3257 23.7592 15.6386 23.6482 15.2378C23.5622 14.9282 23.3025 14.6151 23.1449 14.3413C22.6541 13.4932 22.1634 12.6451 21.6744 11.7952C21.4147 11.3478 20.7198 11.7504 20.9795 12.2013C21.4094 12.9457 21.8392 13.69 22.2709 14.4344C22.4697 14.7797 22.6703 15.1233 22.8691 15.4686C22.8834 15.4937 22.8977 15.5169 22.9103 15.542C22.7598 15.2825 22.6327 15.9499 22.5879 16.0698C22.3962 16.5816 22.1455 17.07 21.8804 17.546C21.6691 17.9235 21.4255 18.2832 21.1747 18.6339C21.0261 18.8397 20.8649 19.0347 20.7037 19.2297C20.6177 19.3317 20.2703 19.593 20.5318 19.593H16.7634C16.8798 19.6592 16.9944 19.7254 17.1109 19.7916C16.3407 18.4585 15.5706 17.1273 14.8004 15.7943V16.2004C15.5706 14.8674 16.3407 13.5361 17.1109 12.2031C16.9944 12.2693 16.8798 12.3355 16.7634 12.4017H21.3288C21.8464 12.4017 21.8464 11.5983 21.3288 11.5983V11.6001Z" fill="#272425"/>
<path d="M14.3973 16.4008H14.4528C14.5943 16.4008 14.7286 16.3239 14.8003 16.2022C15.5704 14.8692 16.3406 13.5379 17.1107 12.2049C17.2629 11.9419 17.0695 11.6001 16.7632 11.6001H16.7077C16.5662 11.6001 16.4319 11.677 16.3603 11.7987C15.5901 13.1317 14.82 14.463 14.0498 15.796C13.7901 16.2451 14.485 16.6495 14.7447 16.2022C15.5149 14.8692 16.285 13.5379 17.0552 12.2049C16.9388 12.2711 16.8241 12.3373 16.7077 12.4035H16.7632C16.6468 12.2013 16.5322 12.0009 16.4158 11.7987C15.6456 13.1317 14.8755 14.463 14.1053 15.796C14.2218 15.7298 14.3364 15.6636 14.4528 15.5974H14.3973C13.8797 15.5974 13.8797 16.4008 14.3973 16.4008Z" fill="#272425"/>
<path d="M16.7079 19.9973H16.7634L14.453 16H14.3975L16.7079 19.9973Z" fill="white"/>
<path d="M16.7081 20.3981H16.7636C17.0699 20.3981 17.2633 20.0582 17.1111 19.7933C16.3409 18.4603 15.5708 17.1291 14.8006 15.796C14.7308 15.6744 14.5946 15.5974 14.4532 15.5974H14.3976C14.0914 15.5974 13.8979 15.9374 14.0502 16.2022C14.8203 17.5352 15.5905 18.8665 16.3606 20.1995C16.6203 20.6468 17.3135 20.2442 17.0555 19.7933C16.2854 18.4603 15.5152 17.1291 14.7451 15.796C14.6287 15.9982 14.514 16.1986 14.3976 16.4008H14.4532C14.3367 16.3346 14.2221 16.2684 14.1057 16.2022C14.8758 17.5352 15.646 18.8665 16.4161 20.1995C16.5326 19.9973 16.6472 19.7969 16.7636 19.5947H16.7081C16.1905 19.5947 16.1905 20.3981 16.7081 20.3981Z" fill="#272425"/>
<path d="M14.4531 8.0036L16.7636 12.0009H21.3289L23.2633 8.65491C22.7331 6.89244 21.7946 5.30532 20.5552 4.00629H16.7636L14.4531 8.0036Z" fill="white"/>
<path d="M14.1055 8.20758C14.8756 9.54062 15.6458 10.8719 16.4159 12.2049C16.4858 12.3266 16.6219 12.4035 16.7634 12.4035H21.0368C21.5562 12.4035 21.6816 12.1942 21.9288 11.7647C22.3712 10.9989 22.8135 10.2349 23.2559 9.46904C23.3723 9.26685 23.4888 9.06466 23.6052 8.86247C23.838 8.45987 23.324 7.59027 23.1574 7.21452C22.8332 6.48269 22.4482 5.7938 21.9932 5.13534C21.8106 4.87052 21.61 4.61823 21.4076 4.36773C21.2231 4.13869 20.958 3.70031 20.6589 3.61979C20.0876 3.46234 19.3067 3.60548 18.7228 3.60548H16.7616C16.6201 3.60548 16.4858 3.68242 16.4141 3.80409C15.644 5.13713 14.8738 6.46837 14.1037 7.80141C13.844 8.25053 14.5389 8.65491 14.7986 8.20758C15.5688 6.87455 16.3389 5.5433 17.1091 4.21027C16.9926 4.27647 16.878 4.34268 16.7616 4.40888H20.4995C20.6338 4.40888 20.3903 4.4214 20.4153 4.44824C20.6123 4.65759 20.7932 4.88126 20.9741 5.10492C21.3144 5.5272 21.6064 5.98884 21.8786 6.45406C22.1168 6.86202 22.3228 7.29146 22.5055 7.72626C22.5897 7.92845 22.6631 8.13601 22.7365 8.34178C22.7437 8.57439 22.801 8.61376 22.9085 8.4563C22.9013 8.46882 22.8941 8.48314 22.8852 8.49566C22.6792 8.85173 22.4732 9.20781 22.2673 9.56388C21.8374 10.3082 21.4076 11.0526 20.9759 11.7969C21.0923 11.7307 21.207 11.6645 21.3234 11.5983H16.758C16.8744 11.6645 16.9891 11.7307 17.1055 11.7969C16.3353 10.4639 15.5652 9.13266 14.795 7.79962C14.5353 7.35229 13.8404 7.75489 14.1001 8.20579L14.1055 8.20758Z" fill="#272425"/>
<path d="M17.1111 11.7987C16.3409 10.4657 15.5708 9.13443 14.8006 7.8014C14.7308 7.67972 14.5946 7.60278 14.4532 7.60278H14.3976C14.0914 7.60278 13.8979 7.94275 14.0502 8.20757C14.8203 9.5406 15.5905 10.8719 16.3606 12.2049C16.4305 12.3266 16.5666 12.4035 16.7081 12.4035H16.7636C17.2812 12.4035 17.2812 11.6001 16.7636 11.6001H16.7081C16.8245 11.6663 16.9391 11.7325 17.0555 11.7987C16.2854 10.4657 15.5152 9.13443 14.7451 7.8014C14.6287 8.00359 14.514 8.20399 14.3976 8.40618H14.4532C14.3367 8.33998 14.2221 8.27377 14.1057 8.20757C14.8758 9.5406 15.646 10.8719 16.4161 12.2049C16.6758 12.6522 17.369 12.2496 17.1111 11.7987Z" fill="#272425"/>
<path d="M9.83193 8.00359H14.3973L16.7078 4.00627H16.7633L14.8666 0.722893C13.9925 0.513544 13.0809 0.400818 12.1424 0.400818C11.2039 0.400818 10.2922 0.513544 9.4182 0.722893L7.52148 4.00627L9.83193 8.00359Z" fill="white"/>
<path d="M9.8319 8.40618H14.3973C14.5388 8.40618 14.6731 8.32924 14.7447 8.20756C15.5149 6.87453 16.285 5.54328 17.0552 4.21025C16.9388 4.27645 16.8241 4.34266 16.7077 4.40886H16.7632C17.0695 4.40886 17.2629 4.06889 17.1107 3.80408L15.214 0.520693C14.9668 0.0912592 13.8492 0.121677 13.405 0.0679981C12.4844 -0.0411497 11.5513 -0.0125208 10.6343 0.0984164C10.2241 0.146728 9.29637 0.135992 9.06175 0.542165C8.92742 0.774775 8.79309 1.00739 8.65876 1.24C8.23608 1.97003 7.81339 2.70186 7.3907 3.4319C7.13279 3.87744 7.10055 4.07784 7.36025 4.52696C8.06951 5.75442 8.77876 6.9801 9.48622 8.20756C9.74593 8.65489 10.4391 8.2523 10.1811 7.80139C9.411 6.46836 8.64085 5.13711 7.8707 3.80408V4.21025C8.28443 3.49452 8.69817 2.77701 9.1119 2.06129C9.31428 1.71058 9.51846 1.35809 9.72085 1.00739C9.73518 0.982335 9.74951 0.957285 9.76384 0.932234C9.61518 1.18811 10.1955 0.971599 10.2492 0.962653C10.8743 0.848137 11.5083 0.812351 12.1423 0.805193C12.694 0.799825 13.2456 0.846347 13.7919 0.923288C14.0373 0.957285 14.2791 1.00739 14.5209 1.05749C14.5835 1.07001 14.4707 0.842769 14.5656 1.00739C14.768 1.35809 14.9722 1.71058 15.1746 2.06129C15.5883 2.77701 16.002 3.49452 16.4158 4.21025C16.5322 4.00806 16.6468 3.80765 16.7632 3.60546H16.7077C16.5662 3.60546 16.4319 3.6824 16.3603 3.80408C15.5901 5.13711 14.82 6.46836 14.0498 7.80139C14.1662 7.73519 14.2809 7.66898 14.3973 7.60278H9.8319C9.31428 7.60278 9.31428 8.40618 9.8319 8.40618Z" fill="#272425"/>
<path d="M16.7634 4.00629H16.7079L14.3975 8.0036H14.453L16.7634 4.00629Z" fill="white"/>
<path d="M16.7636 3.60547H16.7081C16.5666 3.60547 16.4323 3.68241 16.3606 3.80408C15.5905 5.13712 14.8203 6.46836 14.0502 7.8014C13.8979 8.06443 14.0914 8.40618 14.3976 8.40618H14.4532C14.5946 8.40618 14.729 8.32924 14.8006 8.20757C15.5708 6.87454 16.3409 5.54329 17.1111 4.21026C17.3708 3.76114 16.6758 3.35675 16.4161 3.80408C15.646 5.13712 14.8758 6.46836 14.1057 7.8014C14.2221 7.73519 14.3367 7.66899 14.4532 7.60278H14.3976C14.514 7.80498 14.6287 8.00538 14.7451 8.20757C15.5152 6.87454 16.2854 5.54329 17.0555 4.21026C16.9391 4.27646 16.8245 4.34266 16.7081 4.40887H16.7636C17.2812 4.40887 17.2812 3.60547 16.7636 3.60547Z" fill="#272425"/>
<path d="M7.50394 12.0027L9.81438 8.00537L7.50394 4.00806H3.7302C2.47289 5.32857 1.52364 6.94431 0.99707 8.74078L2.88304 12.0027H7.50394Z" fill="white"/>
<path d="M7.85139 12.2049C8.25795 11.4999 8.66631 10.7949 9.07288 10.0917C9.33079 9.64437 9.59049 9.19704 9.8484 8.74793C9.96303 8.54931 10.2156 8.2505 10.2156 8.00536C10.2156 7.78349 9.99885 7.52225 9.89497 7.34153C9.62094 6.86736 9.34691 6.3932 9.07288 5.91903C8.66631 5.21404 8.25795 4.50905 7.85139 3.80586C7.78154 3.68418 7.64542 3.60724 7.50392 3.60724H4.67049C4.3499 3.60724 3.93796 3.53567 3.62452 3.62156C3.27169 3.71818 2.94751 4.28002 2.73079 4.552C2.3887 4.97785 2.08243 5.43234 1.79945 5.89935C1.53258 6.34131 1.3087 6.80653 1.10273 7.2789C0.921835 7.69223 0.597656 8.2845 0.597656 8.74256C0.597656 9.03958 0.927209 9.42071 1.06512 9.65868C1.55587 10.5086 2.04661 11.3567 2.53736 12.2067C2.60721 12.3283 2.74333 12.4053 2.88482 12.4053H7.50572C8.02333 12.4053 8.02333 11.6019 7.50572 11.6019H2.88303C2.99945 11.6681 3.11407 11.7343 3.23049 11.8005C2.81855 11.0883 2.4084 10.3762 1.99646 9.66405C1.79407 9.31514 1.59348 8.96622 1.39109 8.61731C1.37676 8.59226 1.36243 8.56721 1.3481 8.54395C1.49497 8.79803 1.62751 8.1163 1.67049 8C1.86213 7.47752 2.11288 6.98009 2.38333 6.49519C2.59646 6.11049 2.84184 5.74547 3.09795 5.3876C3.2484 5.17826 3.41139 4.97785 3.57795 4.78103C3.66034 4.68262 4.01676 4.41064 3.75706 4.41064H7.50572C7.3893 4.34444 7.27467 4.27823 7.15825 4.21203C7.9284 5.54506 8.69855 6.87631 9.4687 8.20934V7.80317C8.69855 9.13621 7.9284 10.4675 7.15825 11.8005C6.89855 12.2496 7.59348 12.654 7.85318 12.2067L7.85139 12.2049Z" fill="#272425"/>
<path d="M13.6426 18C13.6426 20.5095 15.6199 22.5 18.0626 22.5C20.5053 22.5 22.4826 20.5095 22.4826 18C22.4826 15.4905 20.5053 13.5 18.0626 13.5C15.6199 13.5 13.6426 15.4905 13.6426 18ZM20.3626 18C20.3626 19.4222 19.2885 20.46 18.0626 20.46C16.8384 20.46 15.7626 19.408 15.7626 18C15.7626 16.5778 16.8367 15.54 18.0626 15.54C19.2885 15.54 20.3626 16.5778 20.3626 18Z" fill="white" stroke="#DD0F00"/>
</g>
<defs>
<clipPath id="clip0_790_776">
<rect width="24" height="24" fill="white" transform="translate(0.142578)"/>
</clipPath>
</defs>
</svg>
