<svg width="24" height="24" viewBox="0 0 24 24" fill="none" xmlns="http://www.w3.org/2000/svg">
<g clip-path="url(#clip0_915_225)">
<path d="M12 0C8.81812 0 5.76375 1.26506 3.51562 3.51469C1.26518 5.76521 0.000623381 8.81734 0 12C0 15.1813 1.26562 18.2357 3.51562 20.4853C5.76375 22.7349 8.81812 24 12 24C15.1819 24 18.2362 22.7349 20.4844 20.4853C22.7344 18.2357 24 15.1813 24 12C24 8.81869 22.7344 5.76431 20.4844 3.51469C18.2362 1.26506 15.1819 0 12 0Z" fill="#D9D7F1"/>
<path d="M15.6154 17.9999C15.0924 17.9999 14.3578 17.8108 13.2578 17.1963C11.9201 16.4463 10.8854 15.7539 9.55497 14.4272C8.27221 13.1455 7.64797 12.3156 6.77431 10.7261C5.78733 8.93148 5.95557 7.99076 6.14365 7.5887C6.36762 7.10816 6.69823 6.82074 7.12555 6.53547C7.36826 6.37648 7.62511 6.24019 7.89285 6.12832C7.91964 6.11681 7.94455 6.10582 7.96679 6.09591C8.09941 6.03618 8.30034 5.94591 8.55486 6.04234C8.72471 6.10609 8.87635 6.23654 9.11372 6.47092C9.60052 6.95092 10.2657 8.01995 10.5111 8.54496C10.6759 8.8988 10.785 9.13238 10.7852 9.39435C10.7852 9.70105 10.6309 9.93757 10.4436 10.1928C10.4085 10.2408 10.3737 10.2866 10.34 10.3311C10.1361 10.5989 10.0913 10.6763 10.1208 10.8145C10.1805 11.0923 10.6261 11.9192 11.3583 12.6497C12.0905 13.3801 12.8937 13.7974 13.1726 13.8569C13.3167 13.8877 13.3958 13.8411 13.6722 13.63C13.7119 13.5998 13.7526 13.5684 13.7952 13.5371C14.0808 13.3247 14.3064 13.1744 14.6059 13.1744H14.6075C14.8682 13.1744 15.0914 13.2874 15.4611 13.4739C15.9433 13.7171 17.0447 14.3736 17.5278 14.8608C17.7627 15.0976 17.8937 15.2487 17.9578 15.4183C18.0542 15.6735 17.9634 15.8736 17.9042 16.0076C17.8943 16.0298 17.8833 16.0542 17.8718 16.0812C17.759 16.3484 17.6219 16.6047 17.4621 16.8468C17.1773 17.2727 16.8888 17.6024 16.4071 17.8266C16.1597 17.9436 15.889 18.0028 15.6154 17.9999Z" fill="#8179D0"/>
</g>
<defs>
<clipPath id="clip0_915_225">
<rect width="24" height="24" fill="white"/>
</clipPath>
</defs>
</svg>
