<svg width="32" height="24" viewBox="0 0 32 24" fill="none" xmlns="http://www.w3.org/2000/svg">
<path fill-rule="evenodd" clip-rule="evenodd" d="M21.248 4.36101C22.5751 5.92885 23.4706 7.80843 23.8482 9.8182H24.0549C25.0033 9.8084 25.9443 9.98458 26.8234 10.3365C27.7025 10.6885 28.5022 11.2092 29.1764 11.8686C29.8506 12.528 30.3858 13.313 30.751 14.1782C31.1163 15.0433 31.3043 15.9715 31.3043 16.9089C31.3043 17.8463 31.1163 18.7745 30.751 19.6396C30.3858 20.5048 29.8506 21.2898 29.1764 21.9492C28.5022 22.6086 27.7025 23.1293 26.8234 23.4813C25.9443 23.8332 25.0033 24.0094 24.0549 23.9996H11.7926C9.13507 24.0067 6.5473 23.159 4.41999 21.5847C2.29268 20.0103 0.741291 17.7947 0 15.2723H4.74648C5.30284 16.4137 6.1353 17.402 7.17015 18.1497C8.20501 18.8973 9.41038 19.3814 10.6796 19.559V14.183H7.11736V9.81665H10.6819V4.44146C9.41297 4.61888 8.20781 5.1027 7.17309 5.85011C6.13837 6.59753 5.30599 7.5855 4.74961 8.7266H0C0.741618 6.20369 2.29367 3.98778 4.42176 2.41352C6.54985 0.839253 9.13842 -0.0078774 11.7966 5.52071e-05H29.0667V4.36642H21.2488L21.248 4.36101ZM23.8459 14.1792C23.4674 16.1875 22.5728 18.0659 21.248 19.634H24.0541C24.7777 19.622 25.4676 19.3294 25.975 18.8194C26.4824 18.3093 26.7668 17.6227 26.7668 16.9074C26.7668 16.1921 26.4824 15.5054 25.975 14.9953C25.4676 14.4853 24.7777 14.1927 24.0541 14.1807H23.8475L23.8459 14.1792ZM15.1372 9.81278H19.27C18.9538 8.78405 18.4226 7.83241 17.7106 7.01948C16.9987 6.20655 16.122 5.55045 15.1372 5.09364V9.81278ZM19.27 14.1792H15.1404V18.8983C16.1245 18.4412 17.0007 17.7849 17.7121 16.972C18.4234 16.1591 18.9542 15.2076 19.27 14.1792Z" fill="#707884"/>
</svg>
