<svg width="64" height="50" viewBox="0 0 64 50" fill="none" xmlns="http://www.w3.org/2000/svg">
<path fill-rule="evenodd" clip-rule="evenodd" d="M43.4404 8.91584C46.1535 12.1212 47.9844 15.9639 48.7564 20.0728H49.1789C51.1179 20.0527 53.0417 20.4129 54.8389 21.1325C56.6362 21.852 58.2713 22.9166 59.6496 24.2647C61.0279 25.6129 62.122 27.2177 62.8688 28.9865C63.6155 30.7552 64 32.6527 64 34.5693C64 36.4859 63.6155 38.3834 62.8688 40.1522C62.122 41.9209 61.0279 43.5258 59.6496 44.8739C58.2713 46.222 56.6362 47.2866 54.8389 48.0062C53.0417 48.7257 51.1179 49.0859 49.1789 49.0659H24.1094C18.6761 49.0803 13.3856 47.3473 9.03642 44.1287C4.68725 40.91 1.51553 36.3803 0 31.2233H9.70391C10.8414 33.5569 12.5433 35.5774 14.659 37.106C16.7747 38.6346 19.239 39.6242 21.8338 39.9872V28.9964H14.5511V20.0696H21.8386V9.08033C19.2443 9.44304 16.7804 10.4322 14.665 11.9602C12.5496 13.4883 10.8478 15.5081 9.71031 17.8411H0C1.5162 12.6831 4.68928 8.1528 9.04004 4.9343C13.3908 1.71581 18.683 -0.0161049 24.1174 0.000112868H59.4253V8.92691H43.442L43.4404 8.91584ZM48.7516 28.9885C47.9779 33.0945 46.1489 36.9348 43.4404 40.1406H49.1773C50.6567 40.116 52.0671 39.5179 53.1044 38.4751C54.1418 37.4324 54.7232 36.0285 54.7232 34.5661C54.7232 33.1037 54.1418 31.6999 53.1044 30.6572C52.0671 29.6144 50.6567 29.0163 49.1773 28.9916H48.7548L48.7516 28.9885ZM30.9472 20.0617H39.3965C38.75 17.9585 37.6639 16.0129 36.2084 14.3509C34.7529 12.689 32.9605 11.3476 30.9472 10.4137V20.0617ZM39.3965 28.9885H30.9536V38.6365C32.9657 37.702 34.757 36.3603 36.2113 34.6983C37.6657 33.0364 38.7508 31.0911 39.3965 28.9885Z" fill="#2E69E5"/>
</svg>
