<svg width="16" height="12" viewBox="0 0 16 12" fill="none" xmlns="http://www.w3.org/2000/svg">
<g clip-path="url(#clip0_850_1145)">
<path d="M16 0.473999H0V11.526H16V0.473999Z" fill="#008D03"/>
<path d="M1.92136 0.473999H0V11.526H1.92136V0.473999Z" fill="#009900"/>
<path d="M5.92149 0.473999H4.00012V11.526H5.92149V0.473999Z" fill="#009900"/>
<path d="M9.92136 0.473999H8V11.526H9.92136V0.473999Z" fill="#009900"/>
<path d="M13.9215 0.473999H12.0001V11.526H13.9215V0.473999Z" fill="#009900"/>
<path d="M15.4937 11.0199H0.564087V0.980042H15.4937V11.0197V11.0199ZM0.670622 10.9134H15.3871V1.08658H0.670622V10.9131V10.9134Z" fill="white"/>
<path d="M8.082 1.03333H7.97546V10.9664H8.082V1.03333Z" fill="white"/>
<path d="M8.02876 7.54903C7.17461 7.54903 6.47974 6.85416 6.47974 6.00001C6.47974 5.14586 7.17461 4.45099 8.02876 4.45099C8.88291 4.45099 9.57778 5.14586 9.57778 6.00001C9.57778 6.85416 8.88291 7.54903 8.02876 7.54903ZM8.02876 4.55752C7.23347 4.55752 6.58627 5.20473 6.58627 6.00001C6.58627 6.7953 7.23347 7.4425 8.02876 7.4425C8.82405 7.4425 9.47125 6.7953 9.47125 6.00001C9.47125 5.20473 8.82405 4.55752 8.02876 4.55752Z" fill="white"/>
<path d="M3.27868 9.17901H0.617432V9.07247H3.17215V2.92752H0.617432V2.82098H3.27868V9.17901Z" fill="white"/>
<path d="M15.4596 9.17901H12.7983V2.82098H15.4596V2.92752H12.9049V9.07247H15.4596V9.17901Z" fill="white"/>
<path d="M1.72532 7.58735H0.564087V4.4126H1.72532V7.58735ZM0.670622 7.48081H1.61879V4.51913H0.670622V7.48081Z" fill="white"/>
<path d="M15.4938 7.58735H14.3325V4.4126H15.4938V7.58735ZM14.4391 7.48081H15.3872V4.51913H14.4391V7.48081Z" fill="white"/>
<path d="M1.19805 10.9411H1.09151C1.09151 10.6798 0.878976 10.467 0.617432 10.467V10.3605C0.93757 10.3605 1.19805 10.621 1.19805 10.9411Z" fill="white"/>
<path d="M14.9664 10.9411H14.8599C14.8599 10.621 15.1203 10.3605 15.4405 10.3605V10.467C15.1792 10.467 14.9664 10.6798 14.9664 10.9411Z" fill="white"/>
<path d="M0.617432 1.58861V1.48208C0.878709 1.48208 1.09151 1.26954 1.09151 1.008H1.19805C1.19805 1.32813 0.93757 1.58861 0.617432 1.58861Z" fill="white"/>
<path d="M15.4405 1.58861C15.1203 1.58861 14.8599 1.32813 14.8599 1.008H14.9664C14.9664 1.26927 15.1792 1.48208 15.4405 1.48208V1.58861Z" fill="white"/>
<path d="M3.26449 7.25577L3.20483 7.16761C3.59262 6.9058 3.82407 6.47034 3.82407 6.00318C3.82407 5.53603 3.58916 5.09417 3.19604 4.83289L3.25491 4.7442C3.67812 5.02519 3.93061 5.49607 3.93061 6.00318C3.93061 6.51029 3.68158 6.97398 3.26449 7.25577Z" fill="white"/>
<path d="M12.793 7.25577C12.376 6.97398 12.1272 6.50576 12.1272 6.00318C12.1272 5.5006 12.3797 5.02519 12.8029 4.7442L12.8618 4.83289C12.4684 5.09417 12.2337 5.53176 12.2337 6.00318C12.2337 6.4746 12.4652 6.90554 12.8527 7.16761L12.793 7.25577Z" fill="white"/>
<path d="M0.670636 6.82268H0.28125V5.17725H0.670636V6.82268ZM0.387785 6.71615H0.564101V5.28378H0.387785V6.71615Z" fill="white"/>
<path d="M15.7766 6.82268H15.3872V5.17725H15.7766V6.82268ZM15.4937 6.71615H15.6701V5.28378H15.4937V6.71615Z" fill="white"/>
</g>
<defs>
<clipPath id="clip0_850_1145">
<rect width="16" height="11.052" fill="white" transform="translate(0 0.473999)"/>
</clipPath>
</defs>
</svg>
