<svg width="18" height="8" viewBox="0 0 18 8" fill="none" xmlns="http://www.w3.org/2000/svg">
<path d="M2.83077 6.65927C2.83077 6.65927 2.81649 6.69952 2.79052 6.76185C2.70092 6.97999 2.48018 7.47211 2.31268 7.44874C2.13999 7.42536 1.98547 6.83846 1.93093 6.60733C1.91795 6.5502 1.91016 6.51514 1.91016 6.51514L2.83077 6.65927Z" fill="white"/>
<path d="M4.9292 6.86049C4.9292 6.86049 4.92011 6.91243 4.90193 6.98904C4.8474 7.21887 4.70976 7.66814 4.48383 7.63568C4.25659 7.60322 4.12675 7.14746 4.07741 6.92412C4.06053 6.85011 4.05273 6.80206 4.05273 6.80206L4.9292 6.86049Z" fill="white"/>
<path d="M7.24422 6.91773C7.24422 6.91773 7.23124 6.95278 7.20917 7.00862C7.12866 7.20728 6.9274 7.66564 6.77028 7.66564C6.61317 7.66564 6.44696 7.24494 6.36776 7.02939C6.33919 6.95408 6.32361 6.90344 6.32361 6.90344L7.24422 6.91773Z" fill="white"/>
<path d="M9.51514 6.70209C9.51514 6.70209 9.51124 6.73844 9.50345 6.79558C9.47489 7.0319 9.3788 7.63569 9.17104 7.63569C8.96329 7.63569 8.76332 7.12019 8.68671 6.89945C8.66464 6.83973 8.65295 6.80207 8.65295 6.80207L9.51514 6.70209Z" fill="white"/>
<path d="M11.8162 6.38532C11.8162 6.38532 11.8045 6.43726 11.785 6.51777C11.7188 6.78655 11.5578 7.37346 11.4136 7.36307C11.2643 7.35139 11.1513 6.7437 11.1124 6.49959C11.102 6.43856 11.0968 6.39961 11.0968 6.39961L11.4708 6.25677L11.8162 6.38532Z" fill="white"/>
<path d="M13.9404 6.65284C13.9275 6.90474 13.8742 7.38128 13.6418 7.39167C13.3925 7.40335 13.286 6.88916 13.2315 6.66972C13.2172 6.60999 13.2055 6.57233 13.1964 6.57233L13.943 6.50092C13.943 6.50092 13.9443 6.56194 13.9404 6.65284Z" fill="white"/>
<path d="M15.8843 6.48663C15.8843 6.48663 15.8817 6.53598 15.8739 6.60869C15.8505 6.81644 15.7778 7.21897 15.5532 7.21897C15.3285 7.21897 15.2013 6.81515 15.1558 6.62557C15.1428 6.56714 15.1364 6.52948 15.1364 6.52948L15.8843 6.48663Z" fill="white"/>
<path d="M16.9735 5.80348C16.9683 5.88009 16.9606 5.958 16.9528 6.03721C16.9489 6.08395 16.9437 6.1307 16.9385 6.17874C16.9385 6.17874 16.9385 6.60074 16.3438 6.60074C16.2581 6.60074 16.0919 6.60334 15.8737 6.60853C15.6712 6.61243 15.4232 6.61762 15.1557 6.62541C14.7687 6.6345 14.3402 6.64489 13.9403 6.65268C13.6871 6.65917 13.4443 6.66437 13.2313 6.66956C12.9652 6.67346 12.7444 6.67735 12.6068 6.67735C12.2302 6.67735 11.9965 6.58516 11.7849 6.51764C11.6174 6.4657 11.4628 6.42935 11.2642 6.467C11.2304 6.47349 11.1798 6.48388 11.1122 6.49946C10.8331 6.55919 10.2773 6.68255 9.50344 6.79551C9.25284 6.83187 8.98016 6.86693 8.6867 6.89939C8.24003 6.94743 7.74531 6.98639 7.20904 7.00846C6.93896 7.02015 6.65849 7.02794 6.36764 7.02924C5.90278 7.03184 5.41196 7.02015 4.90166 6.98899C4.63288 6.9734 4.3576 6.95133 4.07713 6.92406C3.65903 6.88381 3.23053 6.83057 2.79035 6.76175C2.50858 6.71631 2.22162 6.66567 1.93076 6.60724C1.77235 6.57737 1.61264 6.54361 1.45163 6.50725C1.16077 6.44363 0.965998 6.16705 1.00495 5.871C1.00755 5.85023 1.01015 5.82945 1.01404 5.80868C1.01664 5.7918 1.01794 5.77492 1.02183 5.75804C1.08026 5.34123 1.18544 4.84911 1.35424 4.72315C1.62952 4.5167 3.31363 4.15832 4.4485 3.75579H4.44979C4.58354 3.70775 4.70819 3.65971 4.82375 3.61037C4.82375 3.61037 8.98405 1.63669 9.65406 1.31077C9.99946 1.14327 10.4267 0.919934 10.7798 0.73685C11.1135 0.565452 11.3823 0.429113 11.4563 0.409636C11.6096 0.37198 12.1991 1.54969 12.5055 1.799C12.8119 2.04831 13.33 2.07687 14.5181 2.11583C14.5181 2.11583 15.1076 1.06666 15.2323 0.965381C15.4271 0.808266 15.788 1.08094 15.9997 1.31077C16.1101 1.43153 16.4503 2.01714 16.7035 2.93386C16.9125 3.68957 17.0618 4.67122 16.9735 5.80348Z" fill="#DD0F00"/>
<path d="M16.7035 2.93382C14.7233 3.08963 14.5182 2.11578 14.5182 2.11578C14.5182 2.11578 15.1077 1.06662 15.2323 0.965336C15.4271 0.808221 15.7881 1.0809 15.9997 1.31073C16.1101 1.43149 16.4503 2.0171 16.7035 2.93382Z" fill="#F9D100"/>
<path d="M5.94958 3.74014L7.34414 6.54354L8.16348 6.60067L8.40889 6.45654L6.8702 3.53888L5.94958 3.74014Z" fill="#FEFFFB"/>
<path d="M7.87659 3.17932L9.67367 6.29825L10.8098 6.09699L8.82577 2.74823L7.87659 3.17932Z" fill="#FEFFFB"/>
<path d="M11.1305 1.7328C11.0513 1.85746 10.0255 2.38723 8.90228 2.87676C8.58026 3.01699 8.25045 3.15463 7.93233 3.27669C7.56746 3.41822 7.21947 3.54028 6.91692 3.62857C6.84291 3.65065 6.77149 3.67012 6.70268 3.687C6.45467 3.75063 6.21575 3.79088 5.98722 3.81425C5.33928 3.88307 4.79003 3.82074 4.44983 3.75582C4.58357 3.70778 4.70822 3.65973 4.82379 3.61039C4.82379 3.61039 8.98409 1.63672 9.6541 1.3108C9.99949 1.1433 10.4267 0.919962 10.7799 0.736877C10.9357 1.01215 11.2304 1.57439 11.1305 1.7328Z" fill="#F9D100"/>
<path d="M16.9735 5.80344C16.9683 5.88005 16.9606 5.95796 16.9528 6.03717C16.9489 6.08391 16.9437 6.13066 16.9385 6.1787C16.9385 6.1787 16.9385 6.6007 16.3438 6.6007C16.2581 6.6007 16.0919 6.6033 15.8737 6.60849C15.6712 6.61239 15.4232 6.61758 15.1557 6.62537C14.7687 6.63446 14.3402 6.64485 13.9403 6.65264C13.6871 6.65913 13.4443 6.66433 13.2313 6.66952C12.9652 6.67342 12.7444 6.67731 12.6068 6.67731C12.2302 6.67731 11.9965 6.58512 11.7849 6.5176C11.6174 6.46566 11.4628 6.4293 11.2642 6.46696C11.2304 6.47345 11.1798 6.48384 11.1122 6.49942C10.8331 6.55915 10.2773 6.68251 9.50344 6.79547C9.25284 6.83183 8.98016 6.86689 8.6867 6.89935C8.24003 6.94739 7.74531 6.98635 7.20904 7.00842C6.93896 7.02011 6.65849 7.0279 6.36764 7.0292C5.90278 7.0318 5.41196 7.02011 4.90166 6.98895C4.63288 6.97336 4.3576 6.95129 4.07713 6.92402C3.65903 6.88377 3.23053 6.83053 2.79035 6.76171C2.50858 6.71627 2.22162 6.66563 1.93076 6.6072C1.77235 6.57733 1.61264 6.54357 1.45163 6.50721C1.16077 6.44359 0.965998 6.16701 1.00495 5.87096C1.00755 5.85019 1.01015 5.82941 1.01404 5.80864C1.01664 5.79176 1.01794 5.77488 1.02183 5.758C2.27875 6.14754 5.8885 6.97726 11.1512 5.81513C12.1471 5.65801 12.2731 6.25791 16.9735 5.80344Z" fill="#FEFFFB"/>
<path d="M16.9528 6.03721C16.9489 6.08395 16.9437 6.1307 16.9385 6.17874C16.9385 6.17874 16.9385 6.60074 16.3438 6.60074C16.2581 6.60074 16.0919 6.60334 15.8737 6.60853C15.6712 6.61243 15.4232 6.61762 15.1557 6.62541C14.7687 6.6345 14.3402 6.64489 13.9403 6.65268C13.6871 6.65917 13.4443 6.66437 13.2313 6.66956C12.9652 6.67346 12.7444 6.67735 12.6068 6.67735C12.2302 6.67735 11.9965 6.58516 11.7849 6.51764C11.6174 6.4657 11.4628 6.42935 11.2642 6.467C11.2304 6.47349 11.1798 6.48388 11.1122 6.49946C10.8331 6.55919 10.2773 6.68255 9.50344 6.79551C9.25284 6.83187 8.98016 6.86693 8.6867 6.89939C8.24003 6.94743 7.74531 6.98639 7.20904 7.00846C6.93896 7.02015 6.65849 7.02794 6.36764 7.02924C5.90278 7.03184 5.41196 7.02015 4.90166 6.98899C4.63288 6.9734 4.3576 6.95133 4.07713 6.92406C3.65903 6.88381 3.23053 6.83057 2.79035 6.76175C2.50858 6.71631 2.22162 6.66567 1.93076 6.60724C1.77235 6.57737 1.61264 6.54361 1.45163 6.50725C1.16077 6.44363 0.965998 6.16705 1.00495 5.871C1.00755 5.85023 1.01015 5.82945 1.01404 5.80868C1.07247 5.38148 1.17895 4.8543 1.35424 4.72315C1.62952 4.5167 3.31363 4.15832 4.4485 3.75579H4.44979C4.58354 3.70775 4.70819 3.65971 4.82375 3.61037C4.82375 3.61037 8.98405 1.63669 9.65406 1.31077C9.99946 1.14327 10.4267 0.919934 10.7798 0.73685C11.1135 0.565452 11.3823 0.429113 11.4563 0.409636C11.6096 0.37198 12.1991 1.54969 12.5055 1.799C12.8119 2.04831 13.33 2.07687 14.5181 2.11583C14.5181 2.11583 15.1076 1.06666 15.2323 0.965381C15.4271 0.808266 15.788 1.08094 15.9997 1.31077C16.1101 1.43153 16.4503 2.01714 16.7035 2.93386C16.9268 3.74151 17.0826 4.80626 16.9528 6.03721Z" stroke="#803919" stroke-width="0.2" stroke-linejoin="round"/>
</svg>
