<svg width="24" height="24" viewBox="0 0 24 24" fill="none" xmlns="http://www.w3.org/2000/svg">
<g clip-path="url(#clip0_915_237)">
<path d="M12.0005 24.001C18.6282 24.001 24.001 18.6282 24.001 12.0005C24.001 5.3728 18.6282 0 12.0005 0C5.3728 0 0 5.3728 0 12.0005C0 18.6282 5.3728 24.001 12.0005 24.001Z" fill="#616161"/>
<path d="M12.0005 19.6369C7.78243 19.6369 4.36408 16.2185 4.36408 12.0005C4.36408 7.78242 7.78243 4.36408 12.0005 4.36408C14.1085 4.36408 16.0174 5.2189 17.4002 6.60075L20.4859 3.51505C18.314 1.34316 15.3134 0 12.0005 0C5.37266 0 0 5.37266 0 12.0005C0 18.6283 5.37266 24.001 12.0005 24.001C15.3144 24.001 18.314 22.6578 20.4869 20.4869L17.4012 17.4012C16.0174 18.7821 14.1085 19.6369 12.0005 19.6369Z" fill="#9E9E9E"/>
<path d="M19.637 12.0005H15.8183C15.8183 9.89242 14.1086 8.18179 11.9996 8.18179C9.89058 8.18179 8.18188 9.89145 8.18188 12.0005C8.18188 13.0274 8.58803 13.9587 9.24849 14.6462L9.24559 14.6491L13.9733 19.3768L13.9742 19.3777C17.235 18.5074 19.637 15.5349 19.637 12.0005Z" fill="#424242"/>
<path d="M24 12.0005H19.6359C19.6359 15.5349 17.2329 18.5074 13.9741 19.3777L17.3441 22.7477C21.2895 20.7818 24 16.7078 24 12.0005Z" fill="#616161"/>
<path d="M12.0005 23.8637C5.39587 23.8637 0.03868 18.5277 0.000967005 11.9318C0.000967005 11.955 0 11.9773 0 12.0005C0 18.6283 5.37266 24.001 12.0005 24.001C18.6283 24.001 24.001 18.6283 24.001 12.0005C24.001 11.9773 24 11.955 24 11.9318C23.9623 18.5277 18.6041 23.8637 12.0005 23.8637Z" fill="#212121" fill-opacity="0.1"/>
<path d="M13.9751 19.3777L14.0815 19.4841C17.2861 18.579 19.6369 15.6335 19.6369 12.1368V12.0005C19.6369 15.5349 17.2339 18.5074 13.9751 19.3777Z" fill="white" fill-opacity="0.05"/>
<path d="M21.8189 10.9093H12C11.3975 10.9093 10.9092 11.3976 10.9092 12C10.9092 12.6025 11.3975 13.0908 12 13.0908H21.8179C22.4204 13.0908 22.9087 12.6025 22.9087 12C22.9097 11.3976 22.4213 10.9093 21.8189 10.9093Z" fill="#9E9E9E"/>
<path opacity="0.5" d="M21.8189 10.9093H12C11.3975 10.9093 10.9092 11.3976 10.9092 12C10.9092 12.6025 11.3975 13.0908 12 13.0908H21.8179C22.4204 13.0908 22.9087 12.6025 22.9087 12C22.9097 11.3976 22.4213 10.9093 21.8189 10.9093Z" fill="#BDBDBD"/>
<path d="M2.18161 12.8186C2.63342 12.8186 2.99969 12.4523 2.99969 12.0005C2.99969 11.5487 2.63342 11.1824 2.18161 11.1824C1.72979 11.1824 1.36353 11.5487 1.36353 12.0005C1.36353 12.4523 1.72979 12.8186 2.18161 12.8186Z" fill="#BDBDBD"/>
<path d="M12.0005 2.99963C12.4523 2.99963 12.8185 2.63336 12.8185 2.18155C12.8185 1.72973 12.4523 1.36346 12.0005 1.36346C11.5486 1.36346 11.1824 1.72973 11.1824 2.18155C11.1824 2.63336 11.5486 2.99963 12.0005 2.99963Z" fill="#BDBDBD"/>
<path d="M12.0005 22.6365C12.4523 22.6365 12.8185 22.2703 12.8185 21.8185C12.8185 21.3666 12.4523 21.0004 12.0005 21.0004C11.5486 21.0004 11.1824 21.3666 11.1824 21.8185C11.1824 22.2703 11.5486 22.6365 12.0005 22.6365Z" fill="#BDBDBD"/>
<path d="M5.04587 5.87548C5.49768 5.87548 5.86395 5.50922 5.86395 5.0574C5.86395 4.60559 5.49768 4.23932 5.04587 4.23932C4.59405 4.23932 4.22778 4.60559 4.22778 5.0574C4.22778 5.50922 4.59405 5.87548 5.04587 5.87548Z" fill="#BDBDBD"/>
<path d="M5.04587 19.7732C5.49768 19.7732 5.86395 19.407 5.86395 18.9551C5.86395 18.5033 5.49768 18.1371 5.04587 18.1371C4.59405 18.1371 4.22778 18.5033 4.22778 18.9551C4.22778 19.407 4.59405 19.7732 5.04587 19.7732Z" fill="#BDBDBD"/>
<path d="M18.955 19.7733C19.4069 19.7733 19.7731 19.407 19.7731 18.9552C19.7731 18.5034 19.4069 18.1371 18.955 18.1371C18.5032 18.1371 18.137 18.5034 18.137 18.9552C18.137 19.407 18.5032 19.7733 18.955 19.7733Z" fill="#757575"/>
<path d="M12.0004 11.046H21.8184C22.3976 11.046 22.8715 11.4986 22.9053 12.0691C22.9063 12.0459 22.9092 12.0237 22.9092 12.0005C22.9092 11.398 22.4209 10.9097 21.8184 10.9097H12.0004C11.398 10.9097 10.9097 11.398 10.9097 12.0005C10.9097 12.0237 10.9106 12.0459 10.9135 12.0691C10.9474 11.4986 11.4202 11.046 12.0004 11.046Z" fill="white" fill-opacity="0.2"/>
<path d="M22.9053 12.0682C22.8695 12.6377 22.3967 13.0913 21.8184 13.0913H12.0004C11.4212 13.0913 10.9474 12.6387 10.9135 12.0682C10.9106 12.0914 10.9097 12.1136 10.9097 12.1359C10.9097 12.7383 11.398 13.2266 12.0004 13.2266H21.8184C22.4209 13.2266 22.9092 12.7383 22.9092 12.1359C22.9092 12.1136 22.9082 12.0914 22.9053 12.0682Z" fill="#212121" fill-opacity="0.2"/>
<path d="M12.0004 4.50044C14.1085 4.50044 16.0173 5.35527 17.4002 6.73711L20.5526 3.58276C20.5294 3.55955 20.5071 3.53634 20.4849 3.5141L17.4002 6.5998C16.0173 5.21796 14.1085 4.36313 12.0004 4.36313C7.78236 4.36313 4.36401 7.78148 4.36401 11.9995C4.36401 12.0227 4.36498 12.045 4.36498 12.0682C4.40173 7.88204 7.80557 4.50044 12.0004 4.50044Z" fill="#212121" fill-opacity="0.1"/>
<path d="M12.0005 24.0012C18.6282 24.0012 24.001 18.6284 24.001 12.0007C24.001 5.37304 18.6282 0.000244141 12.0005 0.000244141C5.3728 0.000244141 0 5.37304 0 12.0007C0 18.6284 5.3728 24.0012 12.0005 24.0012Z" fill="url(#paint0_radial_915_237)"/>
</g>
<defs>
<radialGradient id="paint0_radial_915_237" cx="0" cy="0" r="1" gradientUnits="userSpaceOnUse" gradientTransform="translate(3.51922 3.49213) scale(23.9595)">
<stop stop-color="white" stop-opacity="0.1"/>
<stop offset="1" stop-color="white" stop-opacity="0"/>
</radialGradient>
<clipPath id="clip0_915_237">
<rect width="24" height="24" fill="white"/>
</clipPath>
</defs>
</svg>
