<svg width="36" height="18" viewBox="0 0 36 18" fill="none" xmlns="http://www.w3.org/2000/svg">
<path fill-rule="evenodd" clip-rule="evenodd" d="M0 17.4V0.599976H12.4009H12.48H18.5209C20.7241 0.599976 22.6647 1.27815 24.1654 2.41967C25.1412 1.38954 26.6606 0.691107 28.619 0.603694H34.7974V3.85789H28.619C27.196 3.98899 26.9304 4.65568 26.9304 5.51441C26.9304 6.54416 27.9394 6.86863 29.3155 7.31115C29.5088 7.3733 29.7093 7.43778 29.9153 7.50688C30.1553 7.58738 30.3987 7.66466 30.6423 7.74202C32.8298 8.43671 35.0391 9.13832 35.0391 12.2408C35.0391 14.9715 32.6898 17.3498 28.8048 17.4H18.944V17.3916C18.8041 17.3972 18.663 17.4 18.5209 17.4H12.72H12.4009H0ZM25.6237 14.1561H28.8048C30.5509 14.0869 31.3191 13.2736 31.3191 12.2408C31.3191 11.0665 29.8988 10.3036 28.2262 9.74262C28.0024 9.66752 27.7825 9.59648 27.5671 9.52687C27.5072 9.50751 27.4476 9.48825 27.3883 9.46905C27.2933 11.2382 26.6622 12.8525 25.6237 14.1561ZM3.6 3.95998H12.4009V14.04H3.6V10.44H10.56V7.19998H3.6V3.95998ZM16.0009 14.04H18.5209C21.5209 14.04 23.6809 11.88 23.6809 8.99998C23.6809 6.11998 21.5209 3.95998 18.5209 3.95998H16.0009V14.04Z" fill="white"/>
</svg>
